<svg width="1366" height="600" xmlns="http://www.w3.org/2000/svg"><g><path d="M-115.45099488459527,-42.28849402628839L-119.14558896794915,334.8898447584361L-80.57285743765533,262.6457192469388Z" fill="#e6feec" stroke="#e6feec" fill-opacity="1" stroke-opacity="1"/><path d="M-115.45099488459527,-42.28849402628839L-80.57285743765533,262.6457192469388L-29.315008716657758,63.635465539991856Z" fill="#f3ffef" stroke="#f3ffef" fill-opacity="1" stroke-opacity="1"/><path d="M-115.45099488459527,-42.28849402628839L-29.315008716657758,63.635465539991856L69.56632873043418,-115.05403619259596Z" fill="#fafdf5" stroke="#fafdf5" fill-opacity="1" stroke-opacity="1"/><path d="M69.56632873043418,-115.05403619259596L-29.315008716657758,63.635465539991856L25.310559812933207,121.95715966634452Z" fill="#f4fcf0" stroke="#f4fcf0" fill-opacity="1" stroke-opacity="1"/><path d="M69.56632873043418,-115.05403619259596L25.310559812933207,121.95715966634452L246.93870278075337,55.4513637162745Z" fill="#ecf9ea" stroke="#ecf9ea" fill-opacity="1" stroke-opacity="1"/><path d="M69.56632873043418,-115.05403619259596L246.93870278075337,55.4513637162745L207.6020060107112,-115.54729521274567Z" fill="#eaf7e8" stroke="#eaf7e8" fill-opacity="1" stroke-opacity="1"/><path d="M69.56632873043418,-115.05403619259596L207.6020060107112,-115.54729521274567L320.3725253138691,-121.2731071561575Z" fill="#e8f6e7" stroke="#e8f6e7" fill-opacity="1" stroke-opacity="1"/><path d="M207.6020060107112,-115.54729521274567L246.93870278075337,55.4513637162745L320.3725253138691,-121.2731071561575Z" fill="#e3f4e3" stroke="#e3f4e3" fill-opacity="1" stroke-opacity="1"/><path d="M320.3725253138691,-121.2731071561575L246.93870278075337,55.4513637162745L475.29216745868325,45.0731142796576Z" fill="#dcf2de" stroke="#dcf2de" fill-opacity="1" stroke-opacity="1"/><path d="M320.3725253138691,-121.2731071561575L475.29216745868325,45.0731142796576L474.1305692028254,-105.28413302265108Z" fill="#d5efdf" stroke="#d5efdf" fill-opacity="1" stroke-opacity="1"/><path d="M320.3725253138691,-121.2731071561575L474.1305692028254,-105.28413302265108L842.4780601914972,-118.17162564955652Z" fill="#caebe0" stroke="#caebe0" fill-opacity="1" stroke-opacity="1"/><path d="M320.3725253138691,-121.2731071561575L842.4780601914972,-118.17162564955652L983.5477009322494,-124.33872579596937Z" fill="#b9e3e1" stroke="#b9e3e1" fill-opacity="1" stroke-opacity="1"/><path d="M474.1305692028254,-105.28413302265108L475.29216745868325,45.0731142796576L632.7649759221822,41.266921665519476Z" fill="#ccebe0" stroke="#ccebe0" fill-opacity="1" stroke-opacity="1"/><path d="M474.1305692028254,-105.28413302265108L632.7649759221822,41.266921665519476L707.9638368822634,-20.27599579654634Z" fill="#c4e8e1" stroke="#c4e8e1" fill-opacity="1" stroke-opacity="1"/><path d="M474.1305692028254,-105.28413302265108L707.9638368822634,-20.27599579654634L842.4780601914972,-118.17162564955652Z" fill="#bee6e2" stroke="#bee6e2" fill-opacity="1" stroke-opacity="1"/><path d="M707.9638368822634,-20.27599579654634L632.7649759221822,41.266921665519476L790.8224941045046,175.94607090577483Z" fill="#b3e3db" stroke="#b3e3db" fill-opacity="1" stroke-opacity="1"/><path d="M707.9638368822634,-20.27599579654634L790.8224941045046,175.94607090577483L857.3336914088577,18.91323644667864Z" fill="#abdcdb" stroke="#abdcdb" fill-opacity="1" stroke-opacity="1"/><path d="M707.9638368822634,-20.27599579654634L857.3336914088577,18.91323644667864L842.4780601914972,-118.17162564955652Z" fill="#afdbe1" stroke="#afdbe1" fill-opacity="1" stroke-opacity="1"/><path d="M842.4780601914972,-118.17162564955652L857.3336914088577,18.91323644667864L983.5477009322494,-124.33872579596937Z" fill="#a4d2e0" stroke="#a4d2e0" fill-opacity="1" stroke-opacity="1"/><path d="M983.5477009322494,-124.33872579596937L857.3336914088577,18.91323644667864L922.334594624117,98.83486742153764Z" fill="#a1cfe0" stroke="#a1cfe0" fill-opacity="1" stroke-opacity="1"/><path d="M983.5477009322494,-124.33872579596937L922.334594624117,98.83486742153764L1181.0557039640844,54.52591901645064Z" fill="#94c5de" stroke="#94c5de" fill-opacity="1" stroke-opacity="1"/><path d="M983.5477009322494,-124.33872579596937L1181.0557039640844,54.52591901645064L1121.6096181795,-117.84033676609397Z" fill="#8dbfde" stroke="#8dbfde" fill-opacity="1" stroke-opacity="1"/><path d="M983.5477009322494,-124.33872579596937L1121.6096181795,-117.84033676609397L1481.7238239292055,-125.55223538540304Z" fill="#81b6dd" stroke="#81b6dd" fill-opacity="1" stroke-opacity="1"/><path d="M1121.6096181795,-117.84033676609397L1181.0557039640844,54.52591901645064L1333.7838662602007,-60.36041820421815Z" fill="#80b4dd" stroke="#80b4dd" fill-opacity="1" stroke-opacity="1"/><path d="M1121.6096181795,-117.84033676609397L1333.7838662602007,-60.36041820421815L1481.7238239292055,-125.55223538540304Z" fill="#80abdc" stroke="#80abdc" fill-opacity="1" stroke-opacity="1"/><path d="M1333.7838662602007,-60.36041820421815L1181.0557039640844,54.52591901645064L1330.3618034441024,81.26391392201185Z" fill="#7daeda" stroke="#7daeda" fill-opacity="1" stroke-opacity="1"/><path d="M1333.7838662602007,-60.36041820421815L1330.3618034441024,81.26391392201185L1406.4745833165944,76.70728739351034Z" fill="#7ca7d8" stroke="#7ca7d8" fill-opacity="1" stroke-opacity="1"/><path d="M1333.7838662602007,-60.36041820421815L1406.4745833165944,76.70728739351034L1481.7238239292055,-125.55223538540304Z" fill="#80a2db" stroke="#80a2db" fill-opacity="1" stroke-opacity="1"/><path d="M1481.7238239292055,-125.55223538540304L1406.4745833165944,76.70728739351034L1570.2233392372727,38.03310161456466Z" fill="#809adb" stroke="#809adb" fill-opacity="1" stroke-opacity="1"/><path d="M1481.7238239292055,-125.55223538540304L1570.2233392372727,38.03310161456466L1601.816228935495,-27.327691856771708Z" fill="#8094da" stroke="#8094da" fill-opacity="1" stroke-opacity="1"/><path d="M1601.816228935495,-27.327691856771708L1570.2233392372727,38.03310161456466L1605.3300853539258,328.44877330586314Z" fill="#7391ce" stroke="#7391ce" fill-opacity="1" stroke-opacity="1"/><path d="M-29.315008716657758,63.635465539991856L-80.57285743765533,262.6457192469388L25.310559812933207,121.95715966634452Z" fill="#e9fde6" stroke="#e9fde6" fill-opacity="1" stroke-opacity="1"/><path d="M25.310559812933207,121.95715966634452L-80.57285743765533,262.6457192469388L130.92467824928463,232.79688796028495Z" fill="#d7f9e5" stroke="#d7f9e5" fill-opacity="1" stroke-opacity="1"/><path d="M25.310559812933207,121.95715966634452L130.92467824928463,232.79688796028495L165.15757120214403,181.3662501052022Z" fill="#d8f8de" stroke="#d8f8de" fill-opacity="1" stroke-opacity="1"/><path d="M25.310559812933207,121.95715966634452L165.15757120214403,181.3662501052022L246.93870278075337,55.4513637162745Z" fill="#dff8de" stroke="#dff8de" fill-opacity="1" stroke-opacity="1"/><path d="M246.93870278075337,55.4513637162745L165.15757120214403,181.3662501052022L330.35527403466403,195.58407719247043Z" fill="#d4f5d5" stroke="#d4f5d5" fill-opacity="1" stroke-opacity="1"/><path d="M246.93870278075337,55.4513637162745L330.35527403466403,195.58407719247043L397.5734869390726,127.13197231292725Z" fill="#d0f2d2" stroke="#d0f2d2" fill-opacity="1" stroke-opacity="1"/><path d="M246.93870278075337,55.4513637162745L397.5734869390726,127.13197231292725L475.29216745868325,45.0731142796576Z" fill="#d1f1d6" stroke="#d1f1d6" fill-opacity="1" stroke-opacity="1"/><path d="M397.5734869390726,127.13197231292725L330.35527403466403,195.58407719247043L413.7503243610263,334.2852490581572Z" fill="#b7edd1" stroke="#b7edd1" fill-opacity="1" stroke-opacity="1"/><path d="M397.5734869390726,127.13197231292725L413.7503243610263,334.2852490581572L579.199951607734,255.8513581752777Z" fill="#aaead3" stroke="#aaead3" fill-opacity="1" stroke-opacity="1"/><path d="M397.5734869390726,127.13197231292725L579.199951607734,255.8513581752777L475.29216745868325,45.0731142796576Z" fill="#c0edd1" stroke="#c0edd1" fill-opacity="1" stroke-opacity="1"/><path d="M475.29216745868325,45.0731142796576L579.199951607734,255.8513581752777L632.7649759221822,41.266921665519476Z" fill="#bcead4" stroke="#bcead4" fill-opacity="1" stroke-opacity="1"/><path d="M632.7649759221822,41.266921665519476L579.199951607734,255.8513581752777L661.7532512918115,215.4633743315935Z" fill="#ade7d2" stroke="#ade7d2" fill-opacity="1" stroke-opacity="1"/><path d="M632.7649759221822,41.266921665519476L661.7532512918115,215.4633743315935L790.8224941045046,175.94607090577483Z" fill="#ace5d3" stroke="#ace5d3" fill-opacity="1" stroke-opacity="1"/><path d="M857.3336914088577,18.91323644667864L790.8224941045046,175.94607090577483L922.334594624117,98.83486742153764Z" fill="#9ed5d6" stroke="#9ed5d6" fill-opacity="1" stroke-opacity="1"/><path d="M922.334594624117,98.83486742153764L790.8224941045046,175.94607090577483L1019.2802326474339,170.26035723276436Z" fill="#92d0d0" stroke="#92d0d0" fill-opacity="1" stroke-opacity="1"/><path d="M922.334594624117,98.83486742153764L1019.2802326474339,170.26035723276436L1181.0557039640844,54.52591901645064Z" fill="#87c4d4" stroke="#87c4d4" fill-opacity="1" stroke-opacity="1"/><path d="M1181.0557039640844,54.52591901645064L1019.2802326474339,170.26035723276436L1067.9294614959508,267.1883434429765Z" fill="#7abfcf" stroke="#7abfcf" fill-opacity="1" stroke-opacity="1"/><path d="M1181.0557039640844,54.52591901645064L1067.9294614959508,267.1883434429765L1288.003437872976,244.87340007908642Z" fill="#69b6cf" stroke="#69b6cf" fill-opacity="1" stroke-opacity="1"/><path d="M1181.0557039640844,54.52591901645064L1288.003437872976,244.87340007908642L1330.3618034441024,81.26391392201185Z" fill="#72afd0" stroke="#72afd0" fill-opacity="1" stroke-opacity="1"/><path d="M1330.3618034441024,81.26391392201185L1288.003437872976,244.87340007908642L1454.387578535825,228.5522010549903Z" fill="#67a5cd" stroke="#67a5cd" fill-opacity="1" stroke-opacity="1"/><path d="M1330.3618034441024,81.26391392201185L1454.387578535825,228.5522010549903L1406.4745833165944,76.70728739351034Z" fill="#72a3ce" stroke="#72a3ce" fill-opacity="1" stroke-opacity="1"/><path d="M1406.4745833165944,76.70728739351034L1454.387578535825,228.5522010549903L1556.658269846812,211.8366646952927Z" fill="#6a9bcc" stroke="#6a9bcc" fill-opacity="1" stroke-opacity="1"/><path d="M1406.4745833165944,76.70728739351034L1556.658269846812,211.8366646952927L1570.2233392372727,38.03310161456466Z" fill="#7498cf" stroke="#7498cf" fill-opacity="1" stroke-opacity="1"/><path d="M1570.2233392372727,38.03310161456466L1556.658269846812,211.8366646952927L1605.3300853539258,328.44877330586314Z" fill="#6590cc" stroke="#6590cc" fill-opacity="1" stroke-opacity="1"/><path d="M-80.57285743765533,262.6457192469388L-119.14558896794915,334.8898447584361L89.58374887704849,326.9252595026046Z" fill="#c2f5ec" stroke="#c2f5ec" fill-opacity="1" stroke-opacity="1"/><path d="M-80.57285743765533,262.6457192469388L89.58374887704849,326.9252595026046L130.92467824928463,232.79688796028495Z" fill="#c5f6e5" stroke="#c5f6e5" fill-opacity="1" stroke-opacity="1"/><path d="M130.92467824928463,232.79688796028495L89.58374887704849,326.9252595026046L269.90825892426074,396.92290322855115Z" fill="#afecde" stroke="#afecde" fill-opacity="1" stroke-opacity="1"/><path d="M130.92467824928463,232.79688796028495L269.90825892426074,396.92290322855115L330.35527403466403,195.58407719247043Z" fill="#b4f0d9" stroke="#b4f0d9" fill-opacity="1" stroke-opacity="1"/><path d="M130.92467824928463,232.79688796028495L330.35527403466403,195.58407719247043L165.15757120214403,181.3662501052022Z" fill="#c9f4d9" stroke="#c9f4d9" fill-opacity="1" stroke-opacity="1"/><path d="M330.35527403466403,195.58407719247043L269.90825892426074,396.92290322855115L413.7503243610263,334.2852490581572Z" fill="#a4e9d3" stroke="#a4e9d3" fill-opacity="1" stroke-opacity="1"/><path d="M579.199951607734,255.8513581752777L413.7503243610263,334.2852490581572L561.2725945841521,406.9810278620571Z" fill="#8cded4" stroke="#8cded4" fill-opacity="1" stroke-opacity="1"/><path d="M579.199951607734,255.8513581752777L561.2725945841521,406.9810278620571L660.8720468357205,352.0658834092319Z" fill="#82d9d5" stroke="#82d9d5" fill-opacity="1" stroke-opacity="1"/><path d="M579.199951607734,255.8513581752777L660.8720468357205,352.0658834092319L661.7532512918115,215.4633743315935Z" fill="#92e2d6" stroke="#92e2d6" fill-opacity="1" stroke-opacity="1"/><path d="M661.7532512918115,215.4633743315935L660.8720468357205,352.0658834092319L772.082128431648,350.75539603829384Z" fill="#83ddd7" stroke="#83ddd7" fill-opacity="1" stroke-opacity="1"/><path d="M661.7532512918115,215.4633743315935L772.082128431648,350.75539603829384L790.8224941045046,175.94607090577483Z" fill="#8ddcd5" stroke="#8ddcd5" fill-opacity="1" stroke-opacity="1"/><path d="M790.8224941045046,175.94607090577483L772.082128431648,350.75539603829384L988.1797009985894,348.4011054597795Z" fill="#76d1d5" stroke="#76d1d5" fill-opacity="1" stroke-opacity="1"/><path d="M790.8224941045046,175.94607090577483L988.1797009985894,348.4011054597795L1019.2802326474339,170.26035723276436Z" fill="#7bcbd3" stroke="#7bcbd3" fill-opacity="1" stroke-opacity="1"/><path d="M1019.2802326474339,170.26035723276436L988.1797009985894,348.4011054597795L1067.9294614959508,267.1883434429765Z" fill="#69c1d3" stroke="#69c1d3" fill-opacity="1" stroke-opacity="1"/><path d="M1067.9294614959508,267.1883434429765L988.1797009985894,348.4011054597795L1088.511858265847,336.1063535604626Z" fill="#57b9d4" stroke="#57b9d4" fill-opacity="1" stroke-opacity="1"/><path d="M1067.9294614959508,267.1883434429765L1088.511858265847,336.1063535604626L1288.003437872976,244.87340007908642Z" fill="#55b5d3" stroke="#55b5d3" fill-opacity="1" stroke-opacity="1"/><path d="M1288.003437872976,244.87340007908642L1088.511858265847,336.1063535604626L1308.402593806386,417.4499587342143Z" fill="#3fa4d1" stroke="#3fa4d1" fill-opacity="1" stroke-opacity="1"/><path d="M1288.003437872976,244.87340007908642L1308.402593806386,417.4499587342143L1447.847599927336,389.79095871560276Z" fill="#3a94d0" stroke="#3a94d0" fill-opacity="1" stroke-opacity="1"/><path d="M1288.003437872976,244.87340007908642L1447.847599927336,389.79095871560276L1454.387578535825,228.5522010549903Z" fill="#4d9dd0" stroke="#4d9dd0" fill-opacity="1" stroke-opacity="1"/><path d="M1454.387578535825,228.5522010549903L1447.847599927336,389.79095871560276L1605.3300853539258,328.44877330586314Z" fill="#458fd0" stroke="#458fd0" fill-opacity="1" stroke-opacity="1"/><path d="M1454.387578535825,228.5522010549903L1605.3300853539258,328.44877330586314L1556.658269846812,211.8366646952927Z" fill="#5591ce" stroke="#5591ce" fill-opacity="1" stroke-opacity="1"/><path d="M-119.14558896794915,334.8898447584361L-122.38024597987533,696.213421812281L-27.928648497909307,495.7231201417744Z" fill="#86c4ea" stroke="#86c4ea" fill-opacity="1" stroke-opacity="1"/><path d="M-119.14558896794915,334.8898447584361L-27.928648497909307,495.7231201417744L89.58374887704849,326.9252595026046Z" fill="#a8e1e8" stroke="#a8e1e8" fill-opacity="1" stroke-opacity="1"/><path d="M89.58374887704849,326.9252595026046L-27.928648497909307,495.7231201417744L57.64546226710081,570.4690378904343Z" fill="#8acce3" stroke="#8acce3" fill-opacity="1" stroke-opacity="1"/><path d="M89.58374887704849,326.9252595026046L57.64546226710081,570.4690378904343L207.35883174464107,498.2694602943957Z" fill="#83c9de" stroke="#83c9de" fill-opacity="1" stroke-opacity="1"/><path d="M89.58374887704849,326.9252595026046L207.35883174464107,498.2694602943957L269.90825892426074,396.92290322855115Z" fill="#90d5db" stroke="#90d5db" fill-opacity="1" stroke-opacity="1"/><path d="M269.90825892426074,396.92290322855115L207.35883174464107,498.2694602943957L320.8797503169626,510.68304067477584Z" fill="#77c4d4" stroke="#77c4d4" fill-opacity="1" stroke-opacity="1"/><path d="M269.90825892426074,396.92290322855115L320.8797503169626,510.68304067477584L413.7503243610263,334.2852490581572Z" fill="#83cfd1" stroke="#83cfd1" fill-opacity="1" stroke-opacity="1"/><path d="M413.7503243610263,334.2852490581572L320.8797503169626,510.68304067477584L511.7953151743859,552.4221194442362Z" fill="#6bbfd0" stroke="#6bbfd0" fill-opacity="1" stroke-opacity="1"/><path d="M413.7503243610263,334.2852490581572L511.7953151743859,552.4221194442362L561.2725945841521,406.9810278620571Z" fill="#6fc5d2" stroke="#6fc5d2" fill-opacity="1" stroke-opacity="1"/><path d="M561.2725945841521,406.9810278620571L511.7953151743859,552.4221194442362L647.9692410305142,516.1925957445055Z" fill="#54b3d1" stroke="#54b3d1" fill-opacity="1" stroke-opacity="1"/><path d="M561.2725945841521,406.9810278620571L647.9692410305142,516.1925957445055L660.8720468357205,352.0658834092319Z" fill="#65c2d4" stroke="#65c2d4" fill-opacity="1" stroke-opacity="1"/><path d="M660.8720468357205,352.0658834092319L647.9692410305142,516.1925957445055L783.6057809460908,494.77367168292403Z" fill="#54b7d4" stroke="#54b7d4" fill-opacity="1" stroke-opacity="1"/><path d="M660.8720468357205,352.0658834092319L783.6057809460908,494.77367168292403L772.082128431648,350.75539603829384Z" fill="#61c2d4" stroke="#61c2d4" fill-opacity="1" stroke-opacity="1"/><path d="M772.082128431648,350.75539603829384L783.6057809460908,494.77367168292403L988.1797009985894,348.4011054597795Z" fill="#54b7d3" stroke="#54b7d3" fill-opacity="1" stroke-opacity="1"/><path d="M988.1797009985894,348.4011054597795L783.6057809460908,494.77367168292403L1001.2897115014493,542.187311835587Z" fill="#37a0d1" stroke="#37a0d1" fill-opacity="1" stroke-opacity="1"/><path d="M988.1797009985894,348.4011054597795L1001.2897115014493,542.187311835587L1088.511858265847,336.1063535604626Z" fill="#3ca4d2" stroke="#3ca4d2" fill-opacity="1" stroke-opacity="1"/><path d="M1088.511858265847,336.1063535604626L1001.2897115014493,542.187311835587L1153.9404563046992,523.8404286559671Z" fill="#2390d0" stroke="#2390d0" fill-opacity="1" stroke-opacity="1"/><path d="M1088.511858265847,336.1063535604626L1153.9404563046992,523.8404286559671L1308.402593806386,417.4499587342143Z" fill="#2491d0" stroke="#2491d0" fill-opacity="1" stroke-opacity="1"/><path d="M1308.402593806386,417.4499587342143L1153.9404563046992,523.8404286559671L1326.8793632369488,531.3504158891737Z" fill="#0d79ce" stroke="#0d79ce" fill-opacity="1" stroke-opacity="1"/><path d="M1308.402593806386,417.4499587342143L1326.8793632369488,531.3504158891737L1451.5285981167108,495.4979845136404Z" fill="#1072cd" stroke="#1072cd" fill-opacity="1" stroke-opacity="1"/><path d="M1308.402593806386,417.4499587342143L1451.5285981167108,495.4979845136404L1447.847599927336,389.79095871560276Z" fill="#1f7ace" stroke="#1f7ace" fill-opacity="1" stroke-opacity="1"/><path d="M1447.847599927336,389.79095871560276L1451.5285981167108,495.4979845136404L1516.477678567171,474.80629513040185Z" fill="#196fcd" stroke="#196fcd" fill-opacity="1" stroke-opacity="1"/><path d="M1447.847599927336,389.79095871560276L1516.477678567171,474.80629513040185L1605.3300853539258,328.44877330586314Z" fill="#2a79cd" stroke="#2a79cd" fill-opacity="1" stroke-opacity="1"/><path d="M1605.3300853539258,328.44877330586314L1516.477678567171,474.80629513040185L1546.1814283020794,629.2350089270622Z" fill="#1161cc" stroke="#1161cc" fill-opacity="1" stroke-opacity="1"/><path d="M-27.928648497909307,495.7231201417744L-122.38024597987533,696.213421812281L57.64546226710081,570.4690378904343Z" fill="#7baee5" stroke="#7baee5" fill-opacity="1" stroke-opacity="1"/><path d="M57.64546226710081,570.4690378904343L-122.38024597987533,696.213421812281L99.43782613612711,719.6193066984415Z" fill="#779ae0" stroke="#779ae0" fill-opacity="1" stroke-opacity="1"/><path d="M57.64546226710081,570.4690378904343L99.43782613612711,719.6193066984415L174.09887513145804,701.2574555072933Z" fill="#7097da" stroke="#7097da" fill-opacity="1" stroke-opacity="1"/><path d="M57.64546226710081,570.4690378904343L174.09887513145804,701.2574555072933L207.35883174464107,498.2694602943957Z" fill="#6da8d9" stroke="#6da8d9" fill-opacity="1" stroke-opacity="1"/><path d="M207.35883174464107,498.2694602943957L174.09887513145804,701.2574555072933L320.8797503169626,510.68304067477584Z" fill="#66abd4" stroke="#66abd4" fill-opacity="1" stroke-opacity="1"/><path d="M320.8797503169626,510.68304067477584L174.09887513145804,701.2574555072933L417.6229767501354,720.9869736246765Z" fill="#6096ce" stroke="#6096ce" fill-opacity="1" stroke-opacity="1"/><path d="M320.8797503169626,510.68304067477584L417.6229767501354,720.9869736246765L512.9390401951969,631.0271425545216Z" fill="#5698cd" stroke="#5698cd" fill-opacity="1" stroke-opacity="1"/><path d="M320.8797503169626,510.68304067477584L512.9390401951969,631.0271425545216L511.7953151743859,552.4221194442362Z" fill="#53a5cf" stroke="#53a5cf" fill-opacity="1" stroke-opacity="1"/><path d="M511.7953151743859,552.4221194442362L512.9390401951969,631.0271425545216L647.9692410305142,516.1925957445055Z" fill="#49a1d0" stroke="#49a1d0" fill-opacity="1" stroke-opacity="1"/><path d="M647.9692410305142,516.1925957445055L512.9390401951969,631.0271425545216L660.3305483143777,687.0631068572402Z" fill="#4593cf" stroke="#4593cf" fill-opacity="1" stroke-opacity="1"/><path d="M647.9692410305142,516.1925957445055L660.3305483143777,687.0631068572402L824.6234342828393,642.5665320642292Z" fill="#3a8dd0" stroke="#3a8dd0" fill-opacity="1" stroke-opacity="1"/><path d="M647.9692410305142,516.1925957445055L824.6234342828393,642.5665320642292L783.6057809460908,494.77367168292403Z" fill="#369ad1" stroke="#369ad1" fill-opacity="1" stroke-opacity="1"/><path d="M783.6057809460908,494.77367168292403L824.6234342828393,642.5665320642292L1001.2897115014493,542.187311835587Z" fill="#288cd0" stroke="#288cd0" fill-opacity="1" stroke-opacity="1"/><path d="M1001.2897115014493,542.187311835587L824.6234342828393,642.5665320642292L1014.797578593716,677.598560526967Z" fill="#1f76cd" stroke="#1f76cd" fill-opacity="1" stroke-opacity="1"/><path d="M1001.2897115014493,542.187311835587L1014.797578593716,677.598560526967L1110.9517772030085,642.6047332305461Z" fill="#146dcd" stroke="#146dcd" fill-opacity="1" stroke-opacity="1"/><path d="M1001.2897115014493,542.187311835587L1110.9517772030085,642.6047332305461L1153.9404563046992,523.8404286559671Z" fill="#0e75cd" stroke="#0e75cd" fill-opacity="1" stroke-opacity="1"/><path d="M1153.9404563046992,523.8404286559671L1110.9517772030085,642.6047332305461L1260.1624321192503,732.076712725684Z" fill="#045dcb" stroke="#045dcb" fill-opacity="1" stroke-opacity="1"/><path d="M1153.9404563046992,523.8404286559671L1260.1624321192503,732.076712725684L1326.8793632369488,531.3504158891737Z" fill="#0060cb" stroke="#0060cb" fill-opacity="1" stroke-opacity="1"/><path d="M1326.8793632369488,531.3504158891737L1260.1624321192503,732.076712725684L1463.7890209816396,626.7224553320557Z" fill="#004eca" stroke="#004eca" fill-opacity="1" stroke-opacity="1"/><path d="M1326.8793632369488,531.3504158891737L1463.7890209816396,626.7224553320557L1451.5285981167108,495.4979845136404Z" fill="#005ccb" stroke="#005ccb" fill-opacity="1" stroke-opacity="1"/><path d="M1451.5285981167108,495.4979845136404L1463.7890209816396,626.7224553320557L1516.477678567171,474.80629513040185Z" fill="#005acb" stroke="#005acb" fill-opacity="1" stroke-opacity="1"/><path d="M1516.477678567171,474.80629513040185L1463.7890209816396,626.7224553320557L1546.1814283020794,629.2350089270622Z" fill="#004cc9" stroke="#004cc9" fill-opacity="1" stroke-opacity="1"/><path d="M99.43782613612711,719.6193066984415L1260.1624321192503,732.076712725684L417.6229767501354,720.9869736246765Z" fill="#4677cc" stroke="#4677cc" fill-opacity="1" stroke-opacity="1"/><path d="M99.43782613612711,719.6193066984415L417.6229767501354,720.9869736246765L174.09887513145804,701.2574555072933Z" fill="#6686d1" stroke="#6686d1" fill-opacity="1" stroke-opacity="1"/><path d="M417.6229767501354,720.9869736246765L1260.1624321192503,732.076712725684L660.3305483143777,687.0631068572402Z" fill="#326ecd" stroke="#326ecd" fill-opacity="1" stroke-opacity="1"/><path d="M417.6229767501354,720.9869736246765L660.3305483143777,687.0631068572402L512.9390401951969,631.0271425545216Z" fill="#4c85cc" stroke="#4c85cc" fill-opacity="1" stroke-opacity="1"/><path d="M660.3305483143777,687.0631068572402L1260.1624321192503,732.076712725684L1014.797578593716,677.598560526967Z" fill="#1b5fcb" stroke="#1b5fcb" fill-opacity="1" stroke-opacity="1"/><path d="M660.3305483143777,687.0631068572402L1014.797578593716,677.598560526967L824.6234342828393,642.5665320642292Z" fill="#2c74cd" stroke="#2c74cd" fill-opacity="1" stroke-opacity="1"/><path d="M1014.797578593716,677.598560526967L1260.1624321192503,732.076712725684L1110.9517772030085,642.6047332305461Z" fill="#0a54ca" stroke="#0a54ca" fill-opacity="1" stroke-opacity="1"/><path d="M1260.1624321192503,732.076712725684L1546.1814283020794,629.2350089270622L1463.7890209816396,626.7224553320557Z" fill="#003ec8" stroke="#003ec8" fill-opacity="1" stroke-opacity="1"/></g></svg>