<svg width="1366" height="600" xmlns="http://www.w3.org/2000/svg"><g><path d="M-93.23827564716339,-115.52380392327905L-131.5783181693405,127.79904641211033L62.24745341576636,105.47577437013388Z" fill="#faffc9" stroke="#faffc9" fill-opacity="1" stroke-opacity="1"/><path d="M-93.23827564716339,-115.52380392327905L62.24745341576636,105.47577437013388L95.10384117253125,-44.7199510037899Z" fill="#fafdcd" stroke="#fafdcd" fill-opacity="1" stroke-opacity="1"/><path d="M-93.23827564716339,-115.52380392327905L95.10384117253125,-44.7199510037899L433.8116053584963,-132.8327484615147Z" fill="#eff9d1" stroke="#eff9d1" fill-opacity="1" stroke-opacity="1"/><path d="M95.10384117253125,-44.7199510037899L62.24745341576636,105.47577437013388L174.0184685960412,65.12381267733872Z" fill="#edfac1" stroke="#edfac1" fill-opacity="1" stroke-opacity="1"/><path d="M95.10384117253125,-44.7199510037899L174.0184685960412,65.12381267733872L203.08107191696763,-25.86841631680727Z" fill="#eef8c4" stroke="#eef8c4" fill-opacity="1" stroke-opacity="1"/><path d="M95.10384117253125,-44.7199510037899L203.08107191696763,-25.86841631680727L433.8116053584963,-132.8327484615147Z" fill="#e7f5c9" stroke="#e7f5c9" fill-opacity="1" stroke-opacity="1"/><path d="M203.08107191696763,-25.86841631680727L174.0184685960412,65.12381267733872L380.4117062687874,79.912802092731Z" fill="#e2f5ba" stroke="#e2f5ba" fill-opacity="1" stroke-opacity="1"/><path d="M203.08107191696763,-25.86841631680727L380.4117062687874,79.912802092731L433.8116053584963,-132.8327484615147Z" fill="#e0f2bf" stroke="#e0f2bf" fill-opacity="1" stroke-opacity="1"/><path d="M433.8116053584963,-132.8327484615147L380.4117062687874,79.912802092731L479.9616374820471,-102.03006056137383Z" fill="#d8efbd" stroke="#d8efbd" fill-opacity="1" stroke-opacity="1"/><path d="M433.8116053584963,-132.8327484615147L479.9616374820471,-102.03006056137383L780.4200461413711,-117.42106536403298Z" fill="#c7e7be" stroke="#c7e7be" fill-opacity="1" stroke-opacity="1"/><path d="M433.8116053584963,-132.8327484615147L780.4200461413711,-117.42106536403298L1146.9321834482253,-105.05840487778187Z" fill="#a9d9b0" stroke="#a9d9b0" fill-opacity="1" stroke-opacity="1"/><path d="M433.8116053584963,-132.8327484615147L1146.9321834482253,-105.05840487778187L1588.9068982936442,-93.24028895236552Z" fill="#84c89e" stroke="#84c89e" fill-opacity="1" stroke-opacity="1"/><path d="M479.9616374820471,-102.03006056137383L380.4117062687874,79.912802092731L553.3653491735458,124.33522042818367Z" fill="#d0edb0" stroke="#d0edb0" fill-opacity="1" stroke-opacity="1"/><path d="M479.9616374820471,-102.03006056137383L553.3653491735458,124.33522042818367L621.7647691257298,42.523752925917506Z" fill="#c7e8ad" stroke="#c7e8ad" fill-opacity="1" stroke-opacity="1"/><path d="M479.9616374820471,-102.03006056137383L621.7647691257298,42.523752925917506L645.9883983246982,-61.47968812845647Z" fill="#c5e6b3" stroke="#c5e6b3" fill-opacity="1" stroke-opacity="1"/><path d="M479.9616374820471,-102.03006056137383L645.9883983246982,-61.47968812845647L780.4200461413711,-117.42106536403298Z" fill="#bee3b6" stroke="#bee3b6" fill-opacity="1" stroke-opacity="1"/><path d="M645.9883983246982,-61.47968812845647L621.7647691257298,42.523752925917506L767.0469600241631,76.22460669837892Z" fill="#b5e0a5" stroke="#b5e0a5" fill-opacity="1" stroke-opacity="1"/><path d="M645.9883983246982,-61.47968812845647L767.0469600241631,76.22460669837892L780.4200461413711,-117.42106536403298Z" fill="#b1dda9" stroke="#b1dda9" fill-opacity="1" stroke-opacity="1"/><path d="M780.4200461413711,-117.42106536403298L767.0469600241631,76.22460669837892L1004.3788679502904,-16.112955026328564Z" fill="#a0d59f" stroke="#a0d59f" fill-opacity="1" stroke-opacity="1"/><path d="M780.4200461413711,-117.42106536403298L1004.3788679502904,-16.112955026328564L1146.9321834482253,-105.05840487778187Z" fill="#8fcd9f" stroke="#8fcd9f" fill-opacity="1" stroke-opacity="1"/><path d="M1004.3788679502904,-16.112955026328564L767.0469600241631,76.22460669837892L1006.0907118301839,110.09361354634166Z" fill="#8fd090" stroke="#8fd090" fill-opacity="1" stroke-opacity="1"/><path d="M1004.3788679502904,-16.112955026328564L1006.0907118301839,110.09361354634166L1109.4931282661855,58.409764068201184Z" fill="#81c98a" stroke="#81c98a" fill-opacity="1" stroke-opacity="1"/><path d="M1004.3788679502904,-16.112955026328564L1109.4931282661855,58.409764068201184L1146.9321834482253,-105.05840487778187Z" fill="#80c690" stroke="#80c690" fill-opacity="1" stroke-opacity="1"/><path d="M1146.9321834482253,-105.05840487778187L1109.4931282661855,58.409764068201184L1236.6550598479807,71.61057086661458Z" fill="#7fc188" stroke="#7fc188" fill-opacity="1" stroke-opacity="1"/><path d="M1146.9321834482253,-105.05840487778187L1236.6550598479807,71.61057086661458L1277.1621759887785,-65.19435318186879Z" fill="#80be8a" stroke="#80be8a" fill-opacity="1" stroke-opacity="1"/><path d="M1146.9321834482253,-105.05840487778187L1277.1621759887785,-65.19435318186879L1588.9068982936442,-93.24028895236552Z" fill="#80b689" stroke="#80b689" fill-opacity="1" stroke-opacity="1"/><path d="M1277.1621759887785,-65.19435318186879L1236.6550598479807,71.61057086661458L1385.224476987496,103.91897225752473Z" fill="#7bb87b" stroke="#7bb87b" fill-opacity="1" stroke-opacity="1"/><path d="M1277.1621759887785,-65.19435318186879L1385.224476987496,103.91897225752473L1454.5387718640268,-57.169983610510826Z" fill="#80b47c" stroke="#80b47c" fill-opacity="1" stroke-opacity="1"/><path d="M1277.1621759887785,-65.19435318186879L1454.5387718640268,-57.169983610510826L1588.9068982936442,-93.24028895236552Z" fill="#80b081" stroke="#80b081" fill-opacity="1" stroke-opacity="1"/><path d="M1454.5387718640268,-57.169983610510826L1385.224476987496,103.91897225752473L1516.4512342214584,19.213113924488425Z" fill="#7daf73" stroke="#7daf73" fill-opacity="1" stroke-opacity="1"/><path d="M1454.5387718640268,-57.169983610510826L1516.4512342214584,19.213113924488425L1588.9068982936442,-93.24028895236552Z" fill="#80aa77" stroke="#80aa77" fill-opacity="1" stroke-opacity="1"/><path d="M1588.9068982936442,-93.24028895236552L1516.4512342214584,19.213113924488425L1555.773403281346,234.64369718916714Z" fill="#79a869" stroke="#79a869" fill-opacity="1" stroke-opacity="1"/><path d="M1588.9068982936442,-93.24028895236552L1555.773403281346,234.64369718916714L1591.2355349957943,556.118147727102Z" fill="#5ba24f" stroke="#5ba24f" fill-opacity="1" stroke-opacity="1"/><path d="M1588.9068982936442,-93.24028895236552L1591.2355349957943,556.118147727102L1600.9407607465982,694.3319518771023Z" fill="#238935" stroke="#238935" fill-opacity="1" stroke-opacity="1"/><path d="M-131.5783181693405,127.79904641211033L-133.8379745464772,733.3264089468867L-99.21031963080168,239.63873502798378Z" fill="#a9e69a" stroke="#a9e69a" fill-opacity="1" stroke-opacity="1"/><path d="M-131.5783181693405,127.79904641211033L-99.21031963080168,239.63873502798378L62.24745341576636,105.47577437013388Z" fill="#ecffb9" stroke="#ecffb9" fill-opacity="1" stroke-opacity="1"/><path d="M62.24745341576636,105.47577437013388L-99.21031963080168,239.63873502798378L75.12375687249005,207.5537972152233Z" fill="#e4fdb3" stroke="#e4fdb3" fill-opacity="1" stroke-opacity="1"/><path d="M62.24745341576636,105.47577437013388L75.12375687249005,207.5537972152233L165.72377759031951,193.11747659929097Z" fill="#dffab0" stroke="#dffab0" fill-opacity="1" stroke-opacity="1"/><path d="M62.24745341576636,105.47577437013388L165.72377759031951,193.11747659929097L174.0184685960412,65.12381267733872Z" fill="#e1f9b5" stroke="#e1f9b5" fill-opacity="1" stroke-opacity="1"/><path d="M174.0184685960412,65.12381267733872L165.72377759031951,193.11747659929097L356.03333682753146,192.48478503897786Z" fill="#d6f6ad" stroke="#d6f6ad" fill-opacity="1" stroke-opacity="1"/><path d="M174.0184685960412,65.12381267733872L356.03333682753146,192.48478503897786L380.4117062687874,79.912802092731Z" fill="#d5f3ae" stroke="#d5f3ae" fill-opacity="1" stroke-opacity="1"/><path d="M380.4117062687874,79.912802092731L356.03333682753146,192.48478503897786L493.96411363966763,224.94739671237767Z" fill="#c5f0a2" stroke="#c5f0a2" fill-opacity="1" stroke-opacity="1"/><path d="M380.4117062687874,79.912802092731L493.96411363966763,224.94739671237767L553.3653491735458,124.33522042818367Z" fill="#c2eda2" stroke="#c2eda2" fill-opacity="1" stroke-opacity="1"/><path d="M553.3653491735458,124.33522042818367L493.96411363966763,224.94739671237767L672.7690534293652,255.36209665238857Z" fill="#ade794" stroke="#ade794" fill-opacity="1" stroke-opacity="1"/><path d="M553.3653491735458,124.33522042818367L672.7690534293652,255.36209665238857L621.7647691257298,42.523752925917506Z" fill="#afe499" stroke="#afe499" fill-opacity="1" stroke-opacity="1"/><path d="M621.7647691257298,42.523752925917506L672.7690534293652,255.36209665238857L767.0469600241631,76.22460669837892Z" fill="#a7df97" stroke="#a7df97" fill-opacity="1" stroke-opacity="1"/><path d="M767.0469600241631,76.22460669837892L672.7690534293652,255.36209665238857L862.5035011768341,201.15270313806832Z" fill="#96da8b" stroke="#96da8b" fill-opacity="1" stroke-opacity="1"/><path d="M767.0469600241631,76.22460669837892L862.5035011768341,201.15270313806832L1006.0907118301839,110.09361354634166Z" fill="#8dd38a" stroke="#8dd38a" fill-opacity="1" stroke-opacity="1"/><path d="M1006.0907118301839,110.09361354634166L862.5035011768341,201.15270313806832L953.9640395063907,186.21172425337136Z" fill="#80cf81" stroke="#80cf81" fill-opacity="1" stroke-opacity="1"/><path d="M1006.0907118301839,110.09361354634166L953.9640395063907,186.21172425337136L1077.3793993983418,323.4276262577623Z" fill="#6fca77" stroke="#6fca77" fill-opacity="1" stroke-opacity="1"/><path d="M1006.0907118301839,110.09361354634166L1077.3793993983418,323.4276262577623L1183.3261769078672,276.0546679235995Z" fill="#5ac06d" stroke="#5ac06d" fill-opacity="1" stroke-opacity="1"/><path d="M1006.0907118301839,110.09361354634166L1183.3261769078672,276.0546679235995L1109.4931282661855,58.409764068201184Z" fill="#6ec579" stroke="#6ec579" fill-opacity="1" stroke-opacity="1"/><path d="M1109.4931282661855,58.409764068201184L1183.3261769078672,276.0546679235995L1236.6550598479807,71.61057086661458Z" fill="#6fc076" stroke="#6fc076" fill-opacity="1" stroke-opacity="1"/><path d="M1236.6550598479807,71.61057086661458L1183.3261769078672,276.0546679235995L1327.9893362615258,241.97947287932038Z" fill="#68bc6a" stroke="#68bc6a" fill-opacity="1" stroke-opacity="1"/><path d="M1236.6550598479807,71.61057086661458L1327.9893362615258,241.97947287932038L1385.224476987496,103.91897225752473Z" fill="#6fb76d" stroke="#6fb76d" fill-opacity="1" stroke-opacity="1"/><path d="M1385.224476987496,103.91897225752473L1327.9893362615258,241.97947287932038L1400.5351039767265,169.14557022973895Z" fill="#6bb465" stroke="#6bb465" fill-opacity="1" stroke-opacity="1"/><path d="M1385.224476987496,103.91897225752473L1400.5351039767265,169.14557022973895L1516.4512342214584,19.213113924488425Z" fill="#74b06b" stroke="#74b06b" fill-opacity="1" stroke-opacity="1"/><path d="M1516.4512342214584,19.213113924488425L1400.5351039767265,169.14557022973895L1555.773403281346,234.64369718916714Z" fill="#6eac61" stroke="#6eac61" fill-opacity="1" stroke-opacity="1"/><path d="M-99.21031963080168,239.63873502798378L-133.8379745464772,733.3264089468867L-44.248483227565885,480.83166654221714Z" fill="#80d485" stroke="#80d485" fill-opacity="1" stroke-opacity="1"/><path d="M-99.21031963080168,239.63873502798378L-44.248483227565885,480.83166654221714L-29.262978080660105,329.8797544743866Z" fill="#afe89a" stroke="#afe89a" fill-opacity="1" stroke-opacity="1"/><path d="M-99.21031963080168,239.63873502798378L-29.262978080660105,329.8797544743866L75.12375687249005,207.5537972152233Z" fill="#cef5a8" stroke="#cef5a8" fill-opacity="1" stroke-opacity="1"/><path d="M75.12375687249005,207.5537972152233L-29.262978080660105,329.8797544743866L131.1982581205666,425.0912013463676Z" fill="#b1e999" stroke="#b1e999" fill-opacity="1" stroke-opacity="1"/><path d="M75.12375687249005,207.5537972152233L131.1982581205666,425.0912013463676L198.03569382056594,377.03104111365974Z" fill="#a5e493" stroke="#a5e493" fill-opacity="1" stroke-opacity="1"/><path d="M75.12375687249005,207.5537972152233L198.03569382056594,377.03104111365974L165.72377759031951,193.11747659929097Z" fill="#c1f0a0" stroke="#c1f0a0" fill-opacity="1" stroke-opacity="1"/><path d="M165.72377759031951,193.11747659929097L198.03569382056594,377.03104111365974L356.03333682753146,192.48478503897786Z" fill="#bbed9c" stroke="#bbed9c" fill-opacity="1" stroke-opacity="1"/><path d="M356.03333682753146,192.48478503897786L198.03569382056594,377.03104111365974L410.08866246789694,404.4738175906241Z" fill="#9be08d" stroke="#9be08d" fill-opacity="1" stroke-opacity="1"/><path d="M356.03333682753146,192.48478503897786L410.08866246789694,404.4738175906241L493.96411363966763,224.94739671237767Z" fill="#a5e490" stroke="#a5e490" fill-opacity="1" stroke-opacity="1"/><path d="M493.96411363966763,224.94739671237767L410.08866246789694,404.4738175906241L545.3604504279792,429.03744894079864Z" fill="#81d57f" stroke="#81d57f" fill-opacity="1" stroke-opacity="1"/><path d="M493.96411363966763,224.94739671237767L545.3604504279792,429.03744894079864L621.8908598553389,372.4967612978071Z" fill="#7cd27d" stroke="#7cd27d" fill-opacity="1" stroke-opacity="1"/><path d="M493.96411363966763,224.94739671237767L621.8908598553389,372.4967612978071L672.7690534293652,255.36209665238857Z" fill="#8cd884" stroke="#8cd884" fill-opacity="1" stroke-opacity="1"/><path d="M672.7690534293652,255.36209665238857L621.8908598553389,372.4967612978071L775.1985672488809,423.43670072034Z" fill="#66c873" stroke="#66c873" fill-opacity="1" stroke-opacity="1"/><path d="M672.7690534293652,255.36209665238857L775.1985672488809,423.43670072034L862.5035011768341,201.15270313806832Z" fill="#70cc78" stroke="#70cc78" fill-opacity="1" stroke-opacity="1"/><path d="M862.5035011768341,201.15270313806832L775.1985672488809,423.43670072034L884.2777999956161,475.9275921061635Z" fill="#4cbc66" stroke="#4cbc66" fill-opacity="1" stroke-opacity="1"/><path d="M862.5035011768341,201.15270313806832L884.2777999956161,475.9275921061635L1031.6692743636668,410.1036071777344Z" fill="#42b762" stroke="#42b762" fill-opacity="1" stroke-opacity="1"/><path d="M862.5035011768341,201.15270313806832L1031.6692743636668,410.1036071777344L953.9640395063907,186.21172425337136Z" fill="#62c571" stroke="#62c571" fill-opacity="1" stroke-opacity="1"/><path d="M953.9640395063907,186.21172425337136L1031.6692743636668,410.1036071777344L1077.3793993983418,323.4276262577623Z" fill="#49ba65" stroke="#49ba65" fill-opacity="1" stroke-opacity="1"/><path d="M1183.3261769078672,276.0546679235995L1077.3793993983418,323.4276262577623L1236.136899534613,372.99789673648775Z" fill="#39ae59" stroke="#39ae59" fill-opacity="1" stroke-opacity="1"/><path d="M1183.3261769078672,276.0546679235995L1236.136899534613,372.99789673648775L1327.9893362615258,241.97947287932038Z" fill="#43ad59" stroke="#43ad59" fill-opacity="1" stroke-opacity="1"/><path d="M1327.9893362615258,241.97947287932038L1236.136899534613,372.99789673648775L1426.8970127496868,374.5528865419328Z" fill="#37a34e" stroke="#37a34e" fill-opacity="1" stroke-opacity="1"/><path d="M1327.9893362615258,241.97947287932038L1426.8970127496868,374.5528865419328L1400.5351039767265,169.14557022973895Z" fill="#50aa56" stroke="#50aa56" fill-opacity="1" stroke-opacity="1"/><path d="M1400.5351039767265,169.14557022973895L1426.8970127496868,374.5528865419328L1555.773403281346,234.64369718916714Z" fill="#51a551" stroke="#51a551" fill-opacity="1" stroke-opacity="1"/><path d="M1555.773403281346,234.64369718916714L1426.8970127496868,374.5528865419328L1554.838006356731,342.6128257345408Z" fill="#3c9944" stroke="#3c9944" fill-opacity="1" stroke-opacity="1"/><path d="M1555.773403281346,234.64369718916714L1554.838006356731,342.6128257345408L1591.2355349957943,556.118147727102Z" fill="#258c36" stroke="#258c36" fill-opacity="1" stroke-opacity="1"/><path d="M-29.262978080660105,329.8797544743866L-44.248483227565885,480.83166654221714L131.1982581205666,425.0912013463676Z" fill="#93dd8c" stroke="#93dd8c" fill-opacity="1" stroke-opacity="1"/><path d="M131.1982581205666,425.0912013463676L-44.248483227565885,480.83166654221714L125.62754577957094,553.4974566008896Z" fill="#76d07c" stroke="#76d07c" fill-opacity="1" stroke-opacity="1"/><path d="M131.1982581205666,425.0912013463676L125.62754577957094,553.4974566008896L176.11850098706782,491.88856188207865Z" fill="#70cd78" stroke="#70cd78" fill-opacity="1" stroke-opacity="1"/><path d="M131.1982581205666,425.0912013463676L176.11850098706782,491.88856188207865L198.03569382056594,377.03104111365974Z" fill="#80d581" stroke="#80d581" fill-opacity="1" stroke-opacity="1"/><path d="M198.03569382056594,377.03104111365974L176.11850098706782,491.88856188207865L348.0350580252707,503.8323848694563Z" fill="#70ce79" stroke="#70ce79" fill-opacity="1" stroke-opacity="1"/><path d="M198.03569382056594,377.03104111365974L348.0350580252707,503.8323848694563L410.08866246789694,404.4738175906241Z" fill="#74d07b" stroke="#74d07b" fill-opacity="1" stroke-opacity="1"/><path d="M410.08866246789694,404.4738175906241L348.0350580252707,503.8323848694563L476.3032583333552,497.38456981256604Z" fill="#5ec76f" stroke="#5ec76f" fill-opacity="1" stroke-opacity="1"/><path d="M410.08866246789694,404.4738175906241L476.3032583333552,497.38456981256604L545.3604504279792,429.03744894079864Z" fill="#61c870" stroke="#61c870" fill-opacity="1" stroke-opacity="1"/><path d="M545.3604504279792,429.03744894079864L476.3032583333552,497.38456981256604L651.5903227496892,562.475409982726Z" fill="#49bb62" stroke="#49bb62" fill-opacity="1" stroke-opacity="1"/><path d="M545.3604504279792,429.03744894079864L651.5903227496892,562.475409982726L621.8908598553389,372.4967612978071Z" fill="#4bbe66" stroke="#4bbe66" fill-opacity="1" stroke-opacity="1"/><path d="M621.8908598553389,372.4967612978071L651.5903227496892,562.475409982726L775.1985672488809,423.43670072034Z" fill="#41b962" stroke="#41b962" fill-opacity="1" stroke-opacity="1"/><path d="M775.1985672488809,423.43670072034L651.5903227496892,562.475409982726L884.2777999956161,475.9275921061635Z" fill="#2cae56" stroke="#2cae56" fill-opacity="1" stroke-opacity="1"/><path d="M1031.6692743636668,410.1036071777344L884.2777999956161,475.9275921061635L917.290503513068,531.6261817328632Z" fill="#16a64e" stroke="#16a64e" fill-opacity="1" stroke-opacity="1"/><path d="M1031.6692743636668,410.1036071777344L917.290503513068,531.6261817328632L1099.802690623328,522.713915174827Z" fill="#0a9f47" stroke="#0a9f47" fill-opacity="1" stroke-opacity="1"/><path d="M1031.6692743636668,410.1036071777344L1099.802690623328,522.713915174827L1236.136899534613,372.99789673648775Z" fill="#10a049" stroke="#10a049" fill-opacity="1" stroke-opacity="1"/><path d="M1031.6692743636668,410.1036071777344L1236.136899534613,372.99789673648775L1077.3793993983418,323.4276262577623Z" fill="#29ab55" stroke="#29ab55" fill-opacity="1" stroke-opacity="1"/><path d="M1236.136899534613,372.99789673648775L1099.802690623328,522.713915174827L1254.5847973041236,554.7775628138334Z" fill="#00943c" stroke="#00943c" fill-opacity="1" stroke-opacity="1"/><path d="M1236.136899534613,372.99789673648775L1254.5847973041236,554.7775628138334L1426.8970127496868,374.5528865419328Z" fill="#11953d" stroke="#11953d" fill-opacity="1" stroke-opacity="1"/><path d="M1426.8970127496868,374.5528865419328L1254.5847973041236,554.7775628138334L1464.0560763236135,554.1050652880222Z" fill="#00862e" stroke="#00862e" fill-opacity="1" stroke-opacity="1"/><path d="M1426.8970127496868,374.5528865419328L1464.0560763236135,554.1050652880222L1554.838006356731,342.6128257345408Z" fill="#148b34" stroke="#148b34" fill-opacity="1" stroke-opacity="1"/><path d="M1554.838006356731,342.6128257345408L1464.0560763236135,554.1050652880222L1591.2355349957943,556.118147727102Z" fill="#007e26" stroke="#007e26" fill-opacity="1" stroke-opacity="1"/><path d="M-44.248483227565885,480.83166654221714L-133.8379745464772,733.3264089468867L120.46441471204162,698.0824295058846Z" fill="#7dbc67" stroke="#7dbc67" fill-opacity="1" stroke-opacity="1"/><path d="M-44.248483227565885,480.83166654221714L120.46441471204162,698.0824295058846L125.62754577957094,553.4974566008896Z" fill="#76c26d" stroke="#76c26d" fill-opacity="1" stroke-opacity="1"/><path d="M125.62754577957094,553.4974566008896L120.46441471204162,698.0824295058846L236.82484919205308,622.0387107040733Z" fill="#6fb861" stroke="#6fb861" fill-opacity="1" stroke-opacity="1"/><path d="M125.62754577957094,553.4974566008896L236.82484919205308,622.0387107040733L176.11850098706782,491.88856188207865Z" fill="#6dc16b" stroke="#6dc16b" fill-opacity="1" stroke-opacity="1"/><path d="M176.11850098706782,491.88856188207865L236.82484919205308,622.0387107040733L348.0350580252707,503.8323848694563Z" fill="#67c26b" stroke="#67c26b" fill-opacity="1" stroke-opacity="1"/><path d="M348.0350580252707,503.8323848694563L236.82484919205308,622.0387107040733L430.8932589087635,688.7334016431123Z" fill="#60b55b" stroke="#60b55b" fill-opacity="1" stroke-opacity="1"/><path d="M348.0350580252707,503.8323848694563L430.8932589087635,688.7334016431123L476.3032583333552,497.38456981256604Z" fill="#5ab85f" stroke="#5ab85f" fill-opacity="1" stroke-opacity="1"/><path d="M476.3032583333552,497.38456981256604L430.8932589087635,688.7334016431123L578.7803068198264,615.8037244062871Z" fill="#51af54" stroke="#51af54" fill-opacity="1" stroke-opacity="1"/><path d="M476.3032583333552,497.38456981256604L578.7803068198264,615.8037244062871L651.5903227496892,562.475409982726Z" fill="#47b157" stroke="#47b157" fill-opacity="1" stroke-opacity="1"/><path d="M651.5903227496892,562.475409982726L578.7803068198264,615.8037244062871L661.7073814943433,643.8837250694633Z" fill="#3fa54a" stroke="#3fa54a" fill-opacity="1" stroke-opacity="1"/><path d="M651.5903227496892,562.475409982726L661.7073814943433,643.8837250694633L798.1179908104241,720.0378038641065Z" fill="#359b3f" stroke="#359b3f" fill-opacity="1" stroke-opacity="1"/><path d="M651.5903227496892,562.475409982726L798.1179908104241,720.0378038641065L917.290503513068,531.6261817328632Z" fill="#299b40" stroke="#299b40" fill-opacity="1" stroke-opacity="1"/><path d="M651.5903227496892,562.475409982726L917.290503513068,531.6261817328632L884.2777999956161,475.9275921061635Z" fill="#25a64d" stroke="#25a64d" fill-opacity="1" stroke-opacity="1"/><path d="M917.290503513068,531.6261817328632L798.1179908104241,720.0378038641065L978.4105414990336,724.6877629403025Z" fill="#1a8c31" stroke="#1a8c31" fill-opacity="1" stroke-opacity="1"/><path d="M917.290503513068,531.6261817328632L978.4105414990336,724.6877629403025L1099.802690623328,522.713915174827Z" fill="#0d9035" stroke="#0d9035" fill-opacity="1" stroke-opacity="1"/><path d="M1099.802690623328,522.713915174827L978.4105414990336,724.6877629403025L1162.3665342014283,700.5856581218541Z" fill="#028226" stroke="#028226" fill-opacity="1" stroke-opacity="1"/><path d="M1099.802690623328,522.713915174827L1162.3665342014283,700.5856581218541L1254.5847973041236,554.7775628138334Z" fill="#00852b" stroke="#00852b" fill-opacity="1" stroke-opacity="1"/><path d="M1254.5847973041236,554.7775628138334L1162.3665342014283,700.5856581218541L1302.8309625014663,680.110593829304Z" fill="#00781d" stroke="#00781d" fill-opacity="1" stroke-opacity="1"/><path d="M1254.5847973041236,554.7775628138334L1302.8309625014663,680.110593829304L1464.0560763236135,554.1050652880222Z" fill="#00791f" stroke="#00791f" fill-opacity="1" stroke-opacity="1"/><path d="M1464.0560763236135,554.1050652880222L1302.8309625014663,680.110593829304L1473.1732221599668,642.3625507950783Z" fill="#007015" stroke="#007015" fill-opacity="1" stroke-opacity="1"/><path d="M1464.0560763236135,554.1050652880222L1473.1732221599668,642.3625507950783L1591.2355349957943,556.118147727102Z" fill="#007116" stroke="#007116" fill-opacity="1" stroke-opacity="1"/><path d="M1591.2355349957943,556.118147727102L1473.1732221599668,642.3625507950783L1600.9407607465982,694.3319518771023Z" fill="#00670b" stroke="#00670b" fill-opacity="1" stroke-opacity="1"/><path d="M-133.8379745464772,733.3264089468867L978.4105414990336,724.6877629403025L798.1179908104241,720.0378038641065Z" fill="#4a9841" stroke="#4a9841" fill-opacity="1" stroke-opacity="1"/><path d="M-133.8379745464772,733.3264089468867L798.1179908104241,720.0378038641065L430.8932589087635,688.7334016431123Z" fill="#5ea34c" stroke="#5ea34c" fill-opacity="1" stroke-opacity="1"/><path d="M-133.8379745464772,733.3264089468867L430.8932589087635,688.7334016431123L120.46441471204162,698.0824295058846Z" fill="#70ac56" stroke="#70ac56" fill-opacity="1" stroke-opacity="1"/><path d="M120.46441471204162,698.0824295058846L430.8932589087635,688.7334016431123L236.82484919205308,622.0387107040733Z" fill="#66ad54" stroke="#66ad54" fill-opacity="1" stroke-opacity="1"/><path d="M430.8932589087635,688.7334016431123L798.1179908104241,720.0378038641065L661.7073814943433,643.8837250694633Z" fill="#3f993d" stroke="#3f993d" fill-opacity="1" stroke-opacity="1"/><path d="M430.8932589087635,688.7334016431123L661.7073814943433,643.8837250694633L578.7803068198264,615.8037244062871Z" fill="#49a348" stroke="#49a348" fill-opacity="1" stroke-opacity="1"/><path d="M978.4105414990336,724.6877629403025L1600.9407607465982,694.3319518771023L1162.3665342014283,700.5856581218541Z" fill="#006f15" stroke="#006f15" fill-opacity="1" stroke-opacity="1"/><path d="M1162.3665342014283,700.5856581218541L1600.9407607465982,694.3319518771023L1302.8309625014663,680.110593829304Z" fill="#006a0e" stroke="#006a0e" fill-opacity="1" stroke-opacity="1"/><path d="M1302.8309625014663,680.110593829304L1600.9407607465982,694.3319518771023L1473.1732221599668,642.3625507950783Z" fill="#00660a" stroke="#00660a" fill-opacity="1" stroke-opacity="1"/></g></svg>