<svg width="1366" height="600" xmlns="http://www.w3.org/2000/svg"><g><path d="M-29.02711889706552,-110.61594927683473L-101.54071312397718,24.926769705489278L22.75874954648316,-83.00042104907334Z" fill="#fffcf9" stroke="#fffcf9" fill-opacity="1" stroke-opacity="1"/><path d="M-29.02711889706552,-110.61594927683473L22.75874954648316,-83.00042104907334L171.93529123440385,-131.7890399415046Z" fill="#fff8f0" stroke="#fff8f0" fill-opacity="1" stroke-opacity="1"/><path d="M22.75874954648316,-83.00042104907334L-101.54071312397718,24.926769705489278L84.82223563827574,31.10441828146577Z" fill="#fffaf5" stroke="#fffaf5" fill-opacity="1" stroke-opacity="1"/><path d="M22.75874954648316,-83.00042104907334L84.82223563827574,31.10441828146577L171.93529123440385,-131.7890399415046Z" fill="#fff6ec" stroke="#fff6ec" fill-opacity="1" stroke-opacity="1"/><path d="M171.93529123440385,-131.7890399415046L84.82223563827574,31.10441828146577L215.16316794790328,65.02346254885197Z" fill="#fff2e6" stroke="#fff2e6" fill-opacity="1" stroke-opacity="1"/><path d="M171.93529123440385,-131.7890399415046L215.16316794790328,65.02346254885197L351.6455847211182,41.15855019539595Z" fill="#feecd9" stroke="#feecd9" fill-opacity="1" stroke-opacity="1"/><path d="M171.93529123440385,-131.7890399415046L351.6455847211182,41.15855019539595L410.31956361606717,-46.110028540715575Z" fill="#fee7cf" stroke="#fee7cf" fill-opacity="1" stroke-opacity="1"/><path d="M171.93529123440385,-131.7890399415046L410.31956361606717,-46.110028540715575L552.0470921695232,-109.35994016937912Z" fill="#fedfc3" stroke="#fedfc3" fill-opacity="1" stroke-opacity="1"/><path d="M171.93529123440385,-131.7890399415046L552.0470921695232,-109.35994016937912L1536.9377392251045,-77.12872716598213Z" fill="#f8b58a" stroke="#f8b58a" fill-opacity="1" stroke-opacity="1"/><path d="M410.31956361606717,-46.110028540715575L351.6455847211182,41.15855019539595L508.5248366743326,99.45147575810552Z" fill="#fedab9" stroke="#fedab9" fill-opacity="1" stroke-opacity="1"/><path d="M410.31956361606717,-46.110028540715575L508.5248366743326,99.45147575810552L552.0470921695232,-109.35994016937912Z" fill="#fed3b0" stroke="#fed3b0" fill-opacity="1" stroke-opacity="1"/><path d="M552.0470921695232,-109.35994016937912L508.5248366743326,99.45147575810552L650.2610012423247,-90.53939108736813Z" fill="#fecaa3" stroke="#fecaa3" fill-opacity="1" stroke-opacity="1"/><path d="M552.0470921695232,-109.35994016937912L650.2610012423247,-90.53939108736813L1305.779774542898,-75.52267586812377Z" fill="#f2ac85" stroke="#f2ac85" fill-opacity="1" stroke-opacity="1"/><path d="M552.0470921695232,-109.35994016937912L1305.779774542898,-75.52267586812377L1536.9377392251045,-77.12872716598213Z" fill="#ca9781" stroke="#ca9781" fill-opacity="1" stroke-opacity="1"/><path d="M650.2610012423247,-90.53939108736813L508.5248366743326,99.45147575810552L703.3227653894573,80.2281703054905Z" fill="#fec59a" stroke="#fec59a" fill-opacity="1" stroke-opacity="1"/><path d="M650.2610012423247,-90.53939108736813L703.3227653894573,80.2281703054905L789.4671705365181,-45.2844278421253Z" fill="#faba8f" stroke="#faba8f" fill-opacity="1" stroke-opacity="1"/><path d="M650.2610012423247,-90.53939108736813L789.4671705365181,-45.2844278421253L952.2384295240045,-57.10212257690728Z" fill="#f5b087" stroke="#f5b087" fill-opacity="1" stroke-opacity="1"/><path d="M650.2610012423247,-90.53939108736813L952.2384295240045,-57.10212257690728L1305.779774542898,-75.52267586812377Z" fill="#e2a081" stroke="#e2a081" fill-opacity="1" stroke-opacity="1"/><path d="M789.4671705365181,-45.2844278421253L703.3227653894573,80.2281703054905L854.678103402257,114.42776799201965Z" fill="#f6b284" stroke="#f6b284" fill-opacity="1" stroke-opacity="1"/><path d="M789.4671705365181,-45.2844278421253L854.678103402257,114.42776799201965L952.2384295240045,-57.10212257690728Z" fill="#f0a982" stroke="#f0a982" fill-opacity="1" stroke-opacity="1"/><path d="M952.2384295240045,-57.10212257690728L854.678103402257,114.42776799201965L956.2262721173465,129.0077544003725Z" fill="#eba37c" stroke="#eba37c" fill-opacity="1" stroke-opacity="1"/><path d="M952.2384295240045,-57.10212257690728L956.2262721173465,129.0077544003725L1125.6375580374151,110.47130299732089Z" fill="#db9e7d" stroke="#db9e7d" fill-opacity="1" stroke-opacity="1"/><path d="M952.2384295240045,-57.10212257690728L1125.6375580374151,110.47130299732089L1162.303214231506,-29.338882444426417Z" fill="#d09a81" stroke="#d09a81" fill-opacity="1" stroke-opacity="1"/><path d="M952.2384295240045,-57.10212257690728L1162.303214231506,-29.338882444426417L1305.779774542898,-75.52267586812377Z" fill="#c99782" stroke="#c99782" fill-opacity="1" stroke-opacity="1"/><path d="M1162.303214231506,-29.338882444426417L1125.6375580374151,110.47130299732089L1216.9869364332408,104.48726752772927Z" fill="#c5967e" stroke="#c5967e" fill-opacity="1" stroke-opacity="1"/><path d="M1162.303214231506,-29.338882444426417L1216.9869364332408,104.48726752772927L1305.779774542898,-75.52267586812377Z" fill="#bd9382" stroke="#bd9382" fill-opacity="1" stroke-opacity="1"/><path d="M1305.779774542898,-75.52267586812377L1216.9869364332408,104.48726752772927L1413.6141699459404,99.28587620146573Z" fill="#b38e7f" stroke="#b38e7f" fill-opacity="1" stroke-opacity="1"/><path d="M1305.779774542898,-75.52267586812377L1413.6141699459404,99.28587620146573L1481.0761150438339,-60.7589933462441Z" fill="#a78a82" stroke="#a78a82" fill-opacity="1" stroke-opacity="1"/><path d="M1305.779774542898,-75.52267586812377L1481.0761150438339,-60.7589933462441L1536.9377392251045,-77.12872716598213Z" fill="#a28882" stroke="#a28882" fill-opacity="1" stroke-opacity="1"/><path d="M1481.0761150438339,-60.7589933462441L1413.6141699459404,99.28587620146573L1593.4454667102545,49.61991526186466Z" fill="#9b8581" stroke="#9b8581" fill-opacity="1" stroke-opacity="1"/><path d="M1481.0761150438339,-60.7589933462441L1593.4454667102545,49.61991526186466L1536.9377392251045,-77.12872716598213Z" fill="#968383" stroke="#968383" fill-opacity="1" stroke-opacity="1"/><path d="M-101.54071312397718,24.926769705489278L-103.25763571076095,380.23686222732067L-26.417895359918475,205.18651720136404Z" fill="#ffe5bb" stroke="#ffe5bb" fill-opacity="1" stroke-opacity="1"/><path d="M-101.54071312397718,24.926769705489278L-26.417895359918475,205.18651720136404L84.82223563827574,31.10441828146577Z" fill="#fffaea" stroke="#fffaea" fill-opacity="1" stroke-opacity="1"/><path d="M84.82223563827574,31.10441828146577L-26.417895359918475,205.18651720136404L86.9257789850235,233.77621036022902Z" fill="#ffedc6" stroke="#ffedc6" fill-opacity="1" stroke-opacity="1"/><path d="M84.82223563827574,31.10441828146577L86.9257789850235,233.77621036022902L215.16316794790328,65.02346254885197Z" fill="#fff1d3" stroke="#fff1d3" fill-opacity="1" stroke-opacity="1"/><path d="M215.16316794790328,65.02346254885197L86.9257789850235,233.77621036022902L259.92241295054555,211.5981017332524Z" fill="#ffe1b1" stroke="#ffe1b1" fill-opacity="1" stroke-opacity="1"/><path d="M215.16316794790328,65.02346254885197L259.92241295054555,211.5981017332524L351.6455847211182,41.15855019539595Z" fill="#fee8c1" stroke="#fee8c1" fill-opacity="1" stroke-opacity="1"/><path d="M351.6455847211182,41.15855019539595L259.92241295054555,211.5981017332524L402.59449588134885,223.04733566008508Z" fill="#fed89f" stroke="#fed89f" fill-opacity="1" stroke-opacity="1"/><path d="M351.6455847211182,41.15855019539595L402.59449588134885,223.04733566008508L508.5248366743326,99.45147575810552Z" fill="#fed8a1" stroke="#fed8a1" fill-opacity="1" stroke-opacity="1"/><path d="M508.5248366743326,99.45147575810552L402.59449588134885,223.04733566008508L488.8181454408914,260.6085197813809Z" fill="#febf76" stroke="#febf76" fill-opacity="1" stroke-opacity="1"/><path d="M508.5248366743326,99.45147575810552L488.8181454408914,260.6085197813809L682.6773038227111,231.20784628205Z" fill="#feb467" stroke="#feb467" fill-opacity="1" stroke-opacity="1"/><path d="M508.5248366743326,99.45147575810552L682.6773038227111,231.20784628205L703.3227653894573,80.2281703054905Z" fill="#fdbf79" stroke="#fdbf79" fill-opacity="1" stroke-opacity="1"/><path d="M703.3227653894573,80.2281703054905L682.6773038227111,231.20784628205L854.678103402257,114.42776799201965Z" fill="#f9b067" stroke="#f9b067" fill-opacity="1" stroke-opacity="1"/><path d="M854.678103402257,114.42776799201965L682.6773038227111,231.20784628205L869.4136391021311,228.16547524183989Z" fill="#f59a4b" stroke="#f59a4b" fill-opacity="1" stroke-opacity="1"/><path d="M854.678103402257,114.42776799201965L869.4136391021311,228.16547524183989L956.2262721173465,129.0077544003725Z" fill="#ee9b56" stroke="#ee9b56" fill-opacity="1" stroke-opacity="1"/><path d="M956.2262721173465,129.0077544003725L869.4136391021311,228.16547524183989L981.027275249362,195.72694175876677Z" fill="#e88f48" stroke="#e88f48" fill-opacity="1" stroke-opacity="1"/><path d="M956.2262721173465,129.0077544003725L981.027275249362,195.72694175876677L1076.579275438562,173.95415453240275Z" fill="#dc9151" stroke="#dc9151" fill-opacity="1" stroke-opacity="1"/><path d="M956.2262721173465,129.0077544003725L1076.579275438562,173.95415453240275L1125.6375580374151,110.47130299732089Z" fill="#d49660" stroke="#d49660" fill-opacity="1" stroke-opacity="1"/><path d="M1125.6375580374151,110.47130299732089L1076.579275438562,173.95415453240275L1272.065056907013,232.94064754620194Z" fill="#c6874f" stroke="#c6874f" fill-opacity="1" stroke-opacity="1"/><path d="M1125.6375580374151,110.47130299732089L1272.065056907013,232.94064754620194L1216.9869364332408,104.48726752772927Z" fill="#c08b5b" stroke="#c08b5b" fill-opacity="1" stroke-opacity="1"/><path d="M1216.9869364332408,104.48726752772927L1272.065056907013,232.94064754620194L1413.6141699459404,99.28587620146573Z" fill="#b4875d" stroke="#b4875d" fill-opacity="1" stroke-opacity="1"/><path d="M1413.6141699459404,99.28587620146573L1272.065056907013,232.94064754620194L1438.5377949289978,165.31183845363557Z" fill="#ab7e53" stroke="#ab7e53" fill-opacity="1" stroke-opacity="1"/><path d="M1413.6141699459404,99.28587620146573L1438.5377949289978,165.31183845363557L1593.4454667102545,49.61991526186466Z" fill="#9d846f" stroke="#9d846f" fill-opacity="1" stroke-opacity="1"/><path d="M1593.4454667102545,49.61991526186466L1438.5377949289978,165.31183845363557L1583.511887686327,221.87951155006886Z" fill="#967c5e" stroke="#967c5e" fill-opacity="1" stroke-opacity="1"/><path d="M1593.4454667102545,49.61991526186466L1583.511887686327,221.87951155006886L1599.445302290842,622.5944756437093Z" fill="#8f4b1e" stroke="#8f4b1e" fill-opacity="1" stroke-opacity="1"/><path d="M-26.417895359918475,205.18651720136404L-103.25763571076095,380.23686222732067L16.196494046598673,341.82796091772616Z" fill="#ffc391" stroke="#ffc391" fill-opacity="1" stroke-opacity="1"/><path d="M-26.417895359918475,205.18651720136404L16.196494046598673,341.82796091772616L86.9257789850235,233.77621036022902Z" fill="#ffcf99" stroke="#ffcf99" fill-opacity="1" stroke-opacity="1"/><path d="M86.9257789850235,233.77621036022902L16.196494046598673,341.82796091772616L171.12493202090263,402.37511890009046Z" fill="#ffb781" stroke="#ffb781" fill-opacity="1" stroke-opacity="1"/><path d="M86.9257789850235,233.77621036022902L171.12493202090263,402.37511890009046L259.92241295054555,211.5981017332524Z" fill="#ffc183" stroke="#ffc183" fill-opacity="1" stroke-opacity="1"/><path d="M259.92241295054555,211.5981017332524L171.12493202090263,402.37511890009046L426.69838232919574,316.88035318627954Z" fill="#feb06b" stroke="#feb06b" fill-opacity="1" stroke-opacity="1"/><path d="M259.92241295054555,211.5981017332524L426.69838232919574,316.88035318627954L402.59449588134885,223.04733566008508Z" fill="#feba71" stroke="#feba71" fill-opacity="1" stroke-opacity="1"/><path d="M402.59449588134885,223.04733566008508L426.69838232919574,316.88035318627954L488.8181454408914,260.6085197813809Z" fill="#fead5c" stroke="#fead5c" fill-opacity="1" stroke-opacity="1"/><path d="M488.8181454408914,260.6085197813809L426.69838232919574,316.88035318627954L504.9389034882188,366.77078722044826Z" fill="#fe9a49" stroke="#fe9a49" fill-opacity="1" stroke-opacity="1"/><path d="M488.8181454408914,260.6085197813809L504.9389034882188,366.77078722044826L682.6773038227111,231.20784628205Z" fill="#fe9a44" stroke="#fe9a44" fill-opacity="1" stroke-opacity="1"/><path d="M682.6773038227111,231.20784628205L504.9389034882188,366.77078722044826L648.5489365831017,402.7100719604641Z" fill="#fe852f" stroke="#fe852f" fill-opacity="1" stroke-opacity="1"/><path d="M682.6773038227111,231.20784628205L648.5489365831017,402.7100719604641L767.3174974881113,424.9180722422898Z" fill="#fb7523" stroke="#fb7523" fill-opacity="1" stroke-opacity="1"/><path d="M682.6773038227111,231.20784628205L767.3174974881113,424.9180722422898L869.4136391021311,228.16547524183989Z" fill="#f77e25" stroke="#f77e25" fill-opacity="1" stroke-opacity="1"/><path d="M869.4136391021311,228.16547524183989L767.3174974881113,424.9180722422898L977.691070754081,356.7162910569459Z" fill="#ef6615" stroke="#ef6615" fill-opacity="1" stroke-opacity="1"/><path d="M869.4136391021311,228.16547524183989L977.691070754081,356.7162910569459L981.027275249362,195.72694175876677Z" fill="#e77827" stroke="#e77827" fill-opacity="1" stroke-opacity="1"/><path d="M981.027275249362,195.72694175876677L977.691070754081,356.7162910569459L1076.579275438562,173.95415453240275Z" fill="#db792f" stroke="#db792f" fill-opacity="1" stroke-opacity="1"/><path d="M1076.579275438562,173.95415453240275L977.691070754081,356.7162910569459L1102.2808546107262,429.0678588207811Z" fill="#d45f17" stroke="#d45f17" fill-opacity="1" stroke-opacity="1"/><path d="M1076.579275438562,173.95415453240275L1102.2808546107262,429.0678588207811L1272.065056907013,232.94064754620194Z" fill="#c76723" stroke="#c76723" fill-opacity="1" stroke-opacity="1"/><path d="M1272.065056907013,232.94064754620194L1102.2808546107262,429.0678588207811L1298.6806416604668,376.81100375019014Z" fill="#be4e14" stroke="#be4e14" fill-opacity="1" stroke-opacity="1"/><path d="M1272.065056907013,232.94064754620194L1298.6806416604668,376.81100375019014L1419.1478685289621,344.2527481354773Z" fill="#b05218" stroke="#b05218" fill-opacity="1" stroke-opacity="1"/><path d="M1272.065056907013,232.94064754620194L1419.1478685289621,344.2527481354773L1438.5377949289978,165.31183845363557Z" fill="#aa652e" stroke="#aa652e" fill-opacity="1" stroke-opacity="1"/><path d="M1438.5377949289978,165.31183845363557L1419.1478685289621,344.2527481354773L1583.511887686327,221.87951155006886Z" fill="#9d6130" stroke="#9d6130" fill-opacity="1" stroke-opacity="1"/><path d="M1583.511887686327,221.87951155006886L1419.1478685289621,344.2527481354773L1555.42236934416,361.0014374088496Z" fill="#984b1b" stroke="#984b1b" fill-opacity="1" stroke-opacity="1"/><path d="M1583.511887686327,221.87951155006886L1555.42236934416,361.0014374088496L1599.445302290842,622.5944756437093Z" fill="#8f2c15" stroke="#8f2c15" fill-opacity="1" stroke-opacity="1"/><path d="M-103.25763571076095,380.23686222732067L-39.483399325981736,687.2508763801306L-50.190140744671226,511.95057618431747Z" fill="#ce968d" stroke="#ce968d" fill-opacity="1" stroke-opacity="1"/><path d="M-103.25763571076095,380.23686222732067L-50.190140744671226,511.95057618431747L16.196494046598673,341.82796091772616Z" fill="#faa68c" stroke="#faa68c" fill-opacity="1" stroke-opacity="1"/><path d="M16.196494046598673,341.82796091772616L-50.190140744671226,511.95057618431747L77.33584033325315,478.14140260219574Z" fill="#ec9e86" stroke="#ec9e86" fill-opacity="1" stroke-opacity="1"/><path d="M16.196494046598673,341.82796091772616L77.33584033325315,478.14140260219574L171.12493202090263,402.37511890009046Z" fill="#fca07f" stroke="#fca07f" fill-opacity="1" stroke-opacity="1"/><path d="M171.12493202090263,402.37511890009046L77.33584033325315,478.14140260219574L283.17805398255587,503.63638546317816Z" fill="#e59275" stroke="#e59275" fill-opacity="1" stroke-opacity="1"/><path d="M171.12493202090263,402.37511890009046L283.17805398255587,503.63638546317816L426.69838232919574,316.88035318627954Z" fill="#fb9264" stroke="#fb9264" fill-opacity="1" stroke-opacity="1"/><path d="M426.69838232919574,316.88035318627954L283.17805398255587,503.63638546317816L369.945717304945,555.8543000556529Z" fill="#e58359" stroke="#e58359" fill-opacity="1" stroke-opacity="1"/><path d="M426.69838232919574,316.88035318627954L369.945717304945,555.8543000556529L504.9389034882188,366.77078722044826Z" fill="#f9834b" stroke="#f9834b" fill-opacity="1" stroke-opacity="1"/><path d="M504.9389034882188,366.77078722044826L369.945717304945,555.8543000556529L562.1488867420703,523.7301923520863Z" fill="#dc7344" stroke="#dc7344" fill-opacity="1" stroke-opacity="1"/><path d="M504.9389034882188,366.77078722044826L562.1488867420703,523.7301923520863L648.5489365831017,402.7100719604641Z" fill="#f17135" stroke="#f17135" fill-opacity="1" stroke-opacity="1"/><path d="M648.5489365831017,402.7100719604641L562.1488867420703,523.7301923520863L641.637567691505,487.44547597132623Z" fill="#e0652e" stroke="#e0652e" fill-opacity="1" stroke-opacity="1"/><path d="M648.5489365831017,402.7100719604641L641.637567691505,487.44547597132623L767.3174974881113,424.9180722422898Z" fill="#eb6225" stroke="#eb6225" fill-opacity="1" stroke-opacity="1"/><path d="M767.3174974881113,424.9180722422898L641.637567691505,487.44547597132623L823.0980973318219,620.3724131081253Z" fill="#cd511d" stroke="#cd511d" fill-opacity="1" stroke-opacity="1"/><path d="M767.3174974881113,424.9180722422898L823.0980973318219,620.3724131081253L871.1610002908856,549.1767219733447Z" fill="#c04518" stroke="#c04518" fill-opacity="1" stroke-opacity="1"/><path d="M767.3174974881113,424.9180722422898L871.1610002908856,549.1767219733447L977.691070754081,356.7162910569459Z" fill="#dd4c15" stroke="#dd4c15" fill-opacity="1" stroke-opacity="1"/><path d="M977.691070754081,356.7162910569459L871.1610002908856,549.1767219733447L921.9580841995776,552.1484215836972Z" fill="#c74112" stroke="#c74112" fill-opacity="1" stroke-opacity="1"/><path d="M977.691070754081,356.7162910569459L921.9580841995776,552.1484215836972L1102.2808546107262,429.0678588207811Z" fill="#ca4213" stroke="#ca4213" fill-opacity="1" stroke-opacity="1"/><path d="M1102.2808546107262,429.0678588207811L921.9580841995776,552.1484215836972L1108.032849105075,566.0220478568226Z" fill="#a83613" stroke="#a83613" fill-opacity="1" stroke-opacity="1"/><path d="M1102.2808546107262,429.0678588207811L1108.032849105075,566.0220478568226L1225.8908928651363,513.0213947128505Z" fill="#9f3214" stroke="#9f3214" fill-opacity="1" stroke-opacity="1"/><path d="M1102.2808546107262,429.0678588207811L1225.8908928651363,513.0213947128505L1298.6806416604668,376.81100375019014Z" fill="#af3914" stroke="#af3914" fill-opacity="1" stroke-opacity="1"/><path d="M1298.6806416604668,376.81100375019014L1225.8908928651363,513.0213947128505L1420.159455165267,513.1573692429811Z" fill="#952f14" stroke="#952f14" fill-opacity="1" stroke-opacity="1"/><path d="M1298.6806416604668,376.81100375019014L1420.159455165267,513.1573692429811L1419.1478685289621,344.2527481354773Z" fill="#a53514" stroke="#a53514" fill-opacity="1" stroke-opacity="1"/><path d="M1419.1478685289621,344.2527481354773L1420.159455165267,513.1573692429811L1538.4582910034806,479.9132467992604Z" fill="#8c2b15" stroke="#8c2b15" fill-opacity="1" stroke-opacity="1"/><path d="M1419.1478685289621,344.2527481354773L1538.4582910034806,479.9132467992604L1555.42236934416,361.0014374088496Z" fill="#9a3215" stroke="#9a3215" fill-opacity="1" stroke-opacity="1"/><path d="M1555.42236934416,361.0014374088496L1538.4582910034806,479.9132467992604L1599.445302290842,622.5944756437093Z" fill="#6e1f15" stroke="#6e1f15" fill-opacity="1" stroke-opacity="1"/><path d="M-50.190140744671226,511.95057618431747L-39.483399325981736,687.2508763801306L21.42108516767621,701.9172876980156Z" fill="#a88589" stroke="#a88589" fill-opacity="1" stroke-opacity="1"/><path d="M-50.190140744671226,511.95057618431747L21.42108516767621,701.9172876980156L77.33584033325315,478.14140260219574Z" fill="#c08d86" stroke="#c08d86" fill-opacity="1" stroke-opacity="1"/><path d="M77.33584033325315,478.14140260219574L21.42108516767621,701.9172876980156L192.06517062149942,674.6790126152337Z" fill="#ad817e" stroke="#ad817e" fill-opacity="1" stroke-opacity="1"/><path d="M77.33584033325315,478.14140260219574L192.06517062149942,674.6790126152337L283.17805398255587,503.63638546317816Z" fill="#c48574" stroke="#c48574" fill-opacity="1" stroke-opacity="1"/><path d="M283.17805398255587,503.63638546317816L192.06517062149942,674.6790126152337L369.945717304945,555.8543000556529Z" fill="#ba7b66" stroke="#ba7b66" fill-opacity="1" stroke-opacity="1"/><path d="M369.945717304945,555.8543000556529L192.06517062149942,674.6790126152337L373.78744376823306,708.4134415816516Z" fill="#a26f61" stroke="#a26f61" fill-opacity="1" stroke-opacity="1"/><path d="M369.945717304945,555.8543000556529L373.78744376823306,708.4134415816516L538.7107508070767,647.5484231673181Z" fill="#a6634c" stroke="#a6634c" fill-opacity="1" stroke-opacity="1"/><path d="M369.945717304945,555.8543000556529L538.7107508070767,647.5484231673181L562.1488867420703,523.7301923520863Z" fill="#bb6542" stroke="#bb6542" fill-opacity="1" stroke-opacity="1"/><path d="M562.1488867420703,523.7301923520863L538.7107508070767,647.5484231673181L646.8299737852067,719.4781834445894Z" fill="#a85334" stroke="#a85334" fill-opacity="1" stroke-opacity="1"/><path d="M562.1488867420703,523.7301923520863L646.8299737852067,719.4781834445894L641.637567691505,487.44547597132623Z" fill="#ba572e" stroke="#ba572e" fill-opacity="1" stroke-opacity="1"/><path d="M641.637567691505,487.44547597132623L646.8299737852067,719.4781834445894L823.0980973318219,620.3724131081253Z" fill="#ac4823" stroke="#ac4823" fill-opacity="1" stroke-opacity="1"/><path d="M871.1610002908856,549.1767219733447L823.0980973318219,620.3724131081253L921.9580841995776,552.1484215836972Z" fill="#ad3a15" stroke="#ad3a15" fill-opacity="1" stroke-opacity="1"/><path d="M921.9580841995776,552.1484215836972L823.0980973318219,620.3724131081253L939.5013762172312,729.5347791071981Z" fill="#962f13" stroke="#962f13" fill-opacity="1" stroke-opacity="1"/><path d="M921.9580841995776,552.1484215836972L939.5013762172312,729.5347791071981L1108.032849105075,566.0220478568226Z" fill="#8e2c13" stroke="#8e2c13" fill-opacity="1" stroke-opacity="1"/><path d="M1108.032849105075,566.0220478568226L939.5013762172312,729.5347791071981L1157.127128764987,702.67404592596Z" fill="#6f2013" stroke="#6f2013" fill-opacity="1" stroke-opacity="1"/><path d="M1108.032849105075,566.0220478568226L1157.127128764987,702.67404592596L1284.4724022969604,622.1394522953779Z" fill="#6d1f14" stroke="#6d1f14" fill-opacity="1" stroke-opacity="1"/><path d="M1108.032849105075,566.0220478568226L1284.4724022969604,622.1394522953779L1225.8908928651363,513.0213947128505Z" fill="#802714" stroke="#802714" fill-opacity="1" stroke-opacity="1"/><path d="M1225.8908928651363,513.0213947128505L1284.4724022969604,622.1394522953779L1420.159455165267,513.1573692429811Z" fill="#792414" stroke="#792414" fill-opacity="1" stroke-opacity="1"/><path d="M1420.159455165267,513.1573692429811L1284.4724022969604,622.1394522953779L1400.4763178620487,728.9890344813466Z" fill="#581714" stroke="#581714" fill-opacity="1" stroke-opacity="1"/><path d="M1420.159455165267,513.1573692429811L1400.4763178620487,728.9890344813466L1599.445302290842,622.5944756437093Z" fill="#4b1215" stroke="#4b1215" fill-opacity="1" stroke-opacity="1"/><path d="M1420.159455165267,513.1573692429811L1599.445302290842,622.5944756437093L1538.4582910034806,479.9132467992604Z" fill="#621b15" stroke="#621b15" fill-opacity="1" stroke-opacity="1"/><path d="M21.42108516767621,701.9172876980156L939.5013762172312,729.5347791071981L646.8299737852067,719.4781834445894Z" fill="#8a4e3b" stroke="#8a4e3b" fill-opacity="1" stroke-opacity="1"/><path d="M21.42108516767621,701.9172876980156L646.8299737852067,719.4781834445894L373.78744376823306,708.4134415816516Z" fill="#8c635b" stroke="#8c635b" fill-opacity="1" stroke-opacity="1"/><path d="M21.42108516767621,701.9172876980156L373.78744376823306,708.4134415816516L192.06517062149942,674.6790126152337Z" fill="#927172" stroke="#927172" fill-opacity="1" stroke-opacity="1"/><path d="M373.78744376823306,708.4134415816516L646.8299737852067,719.4781834445894L538.7107508070767,647.5484231673181Z" fill="#92523d" stroke="#92523d" fill-opacity="1" stroke-opacity="1"/><path d="M646.8299737852067,719.4781834445894L939.5013762172312,729.5347791071981L823.0980973318219,620.3724131081253Z" fill="#8a3219" stroke="#8a3219" fill-opacity="1" stroke-opacity="1"/><path d="M939.5013762172312,729.5347791071981L1400.4763178620487,728.9890344813466L1157.127128764987,702.67404592596Z" fill="#4f1614" stroke="#4f1614" fill-opacity="1" stroke-opacity="1"/><path d="M1157.127128764987,702.67404592596L1400.4763178620487,728.9890344813466L1284.4724022969604,622.1394522953779Z" fill="#4d1314" stroke="#4d1314" fill-opacity="1" stroke-opacity="1"/></g></svg>