<svg width="1366" height="600" xmlns="http://www.w3.org/2000/svg"><g><path d="M-18.365603126585484,-73.55439411476254L-64.01541047729552,45.86777240037918L50.83478210493922,93.54288697242737Z" fill="#bf0c2a" stroke="#bf0c2a" fill-opacity="1" stroke-opacity="1"/><path d="M-18.365603126585484,-73.55439411476254L50.83478210493922,93.54288697242737L106.5636741835624,-47.45901801623404Z" fill="#ba092a" stroke="#ba092a" fill-opacity="1" stroke-opacity="1"/><path d="M-18.365603126585484,-73.55439411476254L106.5636741835624,-47.45901801623404L503.88531245291233,-95.91729017905891Z" fill="#b02a32" stroke="#b02a32" fill-opacity="1" stroke-opacity="1"/><path d="M-18.365603126585484,-73.55439411476254L503.88531245291233,-95.91729017905891L824.5377615932375,-119.55671025440097Z" fill="#af6452" stroke="#af6452" fill-opacity="1" stroke-opacity="1"/><path d="M106.5636741835624,-47.45901801623404L50.83478210493922,93.54288697242737L225.27819790877402,-38.30255929380655Z" fill="#d01b2b" stroke="#d01b2b" fill-opacity="1" stroke-opacity="1"/><path d="M106.5636741835624,-47.45901801623404L225.27819790877402,-38.30255929380655L503.88531245291233,-95.91729017905891Z" fill="#be3f3b" stroke="#be3f3b" fill-opacity="1" stroke-opacity="1"/><path d="M225.27819790877402,-38.30255929380655L50.83478210493922,93.54288697242737L279.43108798004687,15.040279403328896Z" fill="#e23331" stroke="#e23331" fill-opacity="1" stroke-opacity="1"/><path d="M225.27819790877402,-38.30255929380655L279.43108798004687,15.040279403328896L380.866362741217,-39.30192274041474Z" fill="#d3433e" stroke="#d3433e" fill-opacity="1" stroke-opacity="1"/><path d="M225.27819790877402,-38.30255929380655L380.866362741217,-39.30192274041474L503.88531245291233,-95.91729017905891Z" fill="#c25746" stroke="#c25746" fill-opacity="1" stroke-opacity="1"/><path d="M380.866362741217,-39.30192274041474L279.43108798004687,15.040279403328896L329.5434051565826,65.29580058529973Z" fill="#e75342" stroke="#e75342" fill-opacity="1" stroke-opacity="1"/><path d="M380.866362741217,-39.30192274041474L329.5434051565826,65.29580058529973L557.0839670207351,35.20923636853695Z" fill="#ec6c51" stroke="#ec6c51" fill-opacity="1" stroke-opacity="1"/><path d="M380.866362741217,-39.30192274041474L557.0839670207351,35.20923636853695L503.88531245291233,-95.91729017905891Z" fill="#d06d5b" stroke="#d06d5b" fill-opacity="1" stroke-opacity="1"/><path d="M503.88531245291233,-95.91729017905891L557.0839670207351,35.20923636853695L651.7999298684299,-61.34763350710273Z" fill="#cd7a6c" stroke="#cd7a6c" fill-opacity="1" stroke-opacity="1"/><path d="M503.88531245291233,-95.91729017905891L651.7999298684299,-61.34763350710273L824.5377615932375,-119.55671025440097Z" fill="#ac7e7e" stroke="#ac7e7e" fill-opacity="1" stroke-opacity="1"/><path d="M651.7999298684299,-61.34763350710273L557.0839670207351,35.20923636853695L652.6794802956283,97.10315915755928Z" fill="#ef8c76" stroke="#ef8c76" fill-opacity="1" stroke-opacity="1"/><path d="M651.7999298684299,-61.34763350710273L652.6794802956283,97.10315915755928L797.4318834487349,101.26238783821464Z" fill="#f19489" stroke="#f19489" fill-opacity="1" stroke-opacity="1"/><path d="M651.7999298684299,-61.34763350710273L797.4318834487349,101.26238783821464L824.5377615932375,-119.55671025440097Z" fill="#c27892" stroke="#c27892" fill-opacity="1" stroke-opacity="1"/><path d="M824.5377615932375,-119.55671025440097L797.4318834487349,101.26238783821464L971.0459619015455,67.90937080979347Z" fill="#c2768c" stroke="#c2768c" fill-opacity="1" stroke-opacity="1"/><path d="M824.5377615932375,-119.55671025440097L971.0459619015455,67.90937080979347L1003.6462938040495,-80.25215028785169Z" fill="#936185" stroke="#936185" fill-opacity="1" stroke-opacity="1"/><path d="M824.5377615932375,-119.55671025440097L1003.6462938040495,-80.25215028785169L1239.9507861211896,-83.09552013874054Z" fill="#65507b" stroke="#65507b" fill-opacity="1" stroke-opacity="1"/><path d="M824.5377615932375,-119.55671025440097L1239.9507861211896,-83.09552013874054L1619.207445513457,-95.00328132882714Z" fill="#471f62" stroke="#471f62" fill-opacity="1" stroke-opacity="1"/><path d="M1003.6462938040495,-80.25215028785169L971.0459619015455,67.90937080979347L1154.4530275650322,75.55134854279459Z" fill="#9e5779" stroke="#9e5779" fill-opacity="1" stroke-opacity="1"/><path d="M1003.6462938040495,-80.25215028785169L1154.4530275650322,75.55134854279459L1156.2401256524026,-58.0861022695899Z" fill="#7d3e72" stroke="#7d3e72" fill-opacity="1" stroke-opacity="1"/><path d="M1003.6462938040495,-80.25215028785169L1156.2401256524026,-58.0861022695899L1239.9507861211896,-83.09552013874054Z" fill="#5d376e" stroke="#5d376e" fill-opacity="1" stroke-opacity="1"/><path d="M1156.2401256524026,-58.0861022695899L1154.4530275650322,75.55134854279459L1239.9507861211896,-83.09552013874054Z" fill="#742a69" stroke="#742a69" fill-opacity="1" stroke-opacity="1"/><path d="M1239.9507861211896,-83.09552013874054L1154.4530275650322,75.55134854279459L1291.0583520960063,126.10522530041635Z" fill="#913363" stroke="#913363" fill-opacity="1" stroke-opacity="1"/><path d="M1239.9507861211896,-83.09552013874054L1291.0583520960063,126.10522530041635L1436.868439419195,-53.64205629564822Z" fill="#730757" stroke="#730757" fill-opacity="1" stroke-opacity="1"/><path d="M1239.9507861211896,-83.09552013874054L1436.868439419195,-53.64205629564822L1619.207445513457,-95.00328132882714Z" fill="#430049" stroke="#430049" fill-opacity="1" stroke-opacity="1"/><path d="M1436.868439419195,-53.64205629564822L1291.0583520960063,126.10522530041635L1443.053014324978,96.9015043694526Z" fill="#8c1e50" stroke="#8c1e50" fill-opacity="1" stroke-opacity="1"/><path d="M1436.868439419195,-53.64205629564822L1443.053014324978,96.9015043694526L1598.2150325831026,89.29178615100682Z" fill="#7f1742" stroke="#7f1742" fill-opacity="1" stroke-opacity="1"/><path d="M1436.868439419195,-53.64205629564822L1598.2150325831026,89.29178615100682L1619.207445513457,-95.00328132882714Z" fill="#58003b" stroke="#58003b" fill-opacity="1" stroke-opacity="1"/><path d="M1619.207445513457,-95.00328132882714L1598.2150325831026,89.29178615100682L1626.773766092956,225.94886055216193Z" fill="#802939" stroke="#802939" fill-opacity="1" stroke-opacity="1"/><path d="M-64.01541047729552,45.86777240037918L-112.1433131955564,365.51484080962837L-25.377673907205462,260.88268345221877Z" fill="#c5806c" stroke="#c5806c" fill-opacity="1" stroke-opacity="1"/><path d="M-64.01541047729552,45.86777240037918L-25.377673907205462,260.88268345221877L50.83478210493922,93.54288697242737Z" fill="#d05243" stroke="#d05243" fill-opacity="1" stroke-opacity="1"/><path d="M50.83478210493922,93.54288697242737L-25.377673907205462,260.88268345221877L85.43143451213837,273.41417024843395Z" fill="#da8365" stroke="#da8365" fill-opacity="1" stroke-opacity="1"/><path d="M50.83478210493922,93.54288697242737L85.43143451213837,273.41417024843395L256.956993592903,259.29242639802396Z" fill="#ec9566" stroke="#ec9566" fill-opacity="1" stroke-opacity="1"/><path d="M50.83478210493922,93.54288697242737L256.956993592903,259.29242639802396L279.43108798004687,15.040279403328896Z" fill="#f47448" stroke="#f47448" fill-opacity="1" stroke-opacity="1"/><path d="M279.43108798004687,15.040279403328896L256.956993592903,259.29242639802396L329.5434051565826,65.29580058529973Z" fill="#fb8550" stroke="#fb8550" fill-opacity="1" stroke-opacity="1"/><path d="M329.5434051565826,65.29580058529973L256.956993592903,259.29242639802396L378.21194741874933,258.1362241599709Z" fill="#fcbf74" stroke="#fcbf74" fill-opacity="1" stroke-opacity="1"/><path d="M329.5434051565826,65.29580058529973L378.21194741874933,258.1362241599709L494.19783546589315,172.52918478101492Z" fill="#fec571" stroke="#fec571" fill-opacity="1" stroke-opacity="1"/><path d="M329.5434051565826,65.29580058529973L494.19783546589315,172.52918478101492L557.0839670207351,35.20923636853695Z" fill="#ff9e64" stroke="#ff9e64" fill-opacity="1" stroke-opacity="1"/><path d="M557.0839670207351,35.20923636853695L494.19783546589315,172.52918478101492L652.6794802956283,97.10315915755928Z" fill="#ffb57b" stroke="#ffb57b" fill-opacity="1" stroke-opacity="1"/><path d="M652.6794802956283,97.10315915755928L494.19783546589315,172.52918478101492L652.5244191102684,279.56441167742014Z" fill="#ffed9f" stroke="#ffed9f" fill-opacity="1" stroke-opacity="1"/><path d="M652.6794802956283,97.10315915755928L652.5244191102684,279.56441167742014L796.0996633674949,262.26042319089174Z" fill="#f5f9c6" stroke="#f5f9c6" fill-opacity="1" stroke-opacity="1"/><path d="M652.6794802956283,97.10315915755928L796.0996633674949,262.26042319089174L797.4318834487349,101.26238783821464Z" fill="#efdab3" stroke="#efdab3" fill-opacity="1" stroke-opacity="1"/><path d="M797.4318834487349,101.26238783821464L796.0996633674949,262.26042319089174L958.0605010036379,170.7241457607597Z" fill="#d9ddb7" stroke="#d9ddb7" fill-opacity="1" stroke-opacity="1"/><path d="M797.4318834487349,101.26238783821464L958.0605010036379,170.7241457607597L971.0459619015455,67.90937080979347Z" fill="#ccaa9a" stroke="#ccaa9a" fill-opacity="1" stroke-opacity="1"/><path d="M971.0459619015455,67.90937080979347L958.0605010036379,170.7241457607597L1154.4530275650322,75.55134854279459Z" fill="#b38d8b" stroke="#b38d8b" fill-opacity="1" stroke-opacity="1"/><path d="M1154.4530275650322,75.55134854279459L958.0605010036379,170.7241457607597L1149.411006141454,226.68858761899173Z" fill="#a8a595" stroke="#a8a595" fill-opacity="1" stroke-opacity="1"/><path d="M1154.4530275650322,75.55134854279459L1149.411006141454,226.68858761899173L1291.0583520960063,126.10522530041635Z" fill="#9c7f83" stroke="#9c7f83" fill-opacity="1" stroke-opacity="1"/><path d="M1291.0583520960063,126.10522530041635L1149.411006141454,226.68858761899173L1307.6070658676326,244.16074133478105Z" fill="#989096" stroke="#989096" fill-opacity="1" stroke-opacity="1"/><path d="M1291.0583520960063,126.10522530041635L1307.6070658676326,244.16074133478105L1443.053014324978,96.9015043694526Z" fill="#906375" stroke="#906375" fill-opacity="1" stroke-opacity="1"/><path d="M1443.053014324978,96.9015043694526L1307.6070658676326,244.16074133478105L1404.3554407171905,278.39940992183983Z" fill="#8d7b89" stroke="#8d7b89" fill-opacity="1" stroke-opacity="1"/><path d="M1443.053014324978,96.9015043694526L1404.3554407171905,278.39940992183983L1626.773766092956,225.94886055216193Z" fill="#847878" stroke="#847878" fill-opacity="1" stroke-opacity="1"/><path d="M1443.053014324978,96.9015043694526L1626.773766092956,225.94886055216193L1598.2150325831026,89.29178615100682Z" fill="#805555" stroke="#805555" fill-opacity="1" stroke-opacity="1"/><path d="M-25.377673907205462,260.88268345221877L-112.1433131955564,365.51484080962837L-63.266997216269374,470.0926671177149Z" fill="#b38092" stroke="#b38092" fill-opacity="1" stroke-opacity="1"/><path d="M-25.377673907205462,260.88268345221877L-63.266997216269374,470.0926671177149L85.43143451213837,273.41417024843395Z" fill="#cf8093" stroke="#cf8093" fill-opacity="1" stroke-opacity="1"/><path d="M85.43143451213837,273.41417024843395L-63.266997216269374,470.0926671177149L131.00655091926455,315.30533543787897Z" fill="#d18a93" stroke="#d18a93" fill-opacity="1" stroke-opacity="1"/><path d="M85.43143451213837,273.41417024843395L131.00655091926455,315.30533543787897L256.956993592903,259.29242639802396Z" fill="#efa08c" stroke="#efa08c" fill-opacity="1" stroke-opacity="1"/><path d="M256.956993592903,259.29242639802396L131.00655091926455,315.30533543787897L231.5176260843873,415.17686541192234Z" fill="#f4ac9d" stroke="#f4ac9d" fill-opacity="1" stroke-opacity="1"/><path d="M256.956993592903,259.29242639802396L231.5176260843873,415.17686541192234L354.443684136495,360.2846514713019Z" fill="#f3bfa5" stroke="#f3bfa5" fill-opacity="1" stroke-opacity="1"/><path d="M256.956993592903,259.29242639802396L354.443684136495,360.2846514713019L378.21194741874933,258.1362241599709Z" fill="#fdcca3" stroke="#fdcca3" fill-opacity="1" stroke-opacity="1"/><path d="M378.21194741874933,258.1362241599709L354.443684136495,360.2846514713019L547.1217124443501,324.1411726176739Z" fill="#fee2b7" stroke="#fee2b7" fill-opacity="1" stroke-opacity="1"/><path d="M378.21194741874933,258.1362241599709L547.1217124443501,324.1411726176739L494.19783546589315,172.52918478101492Z" fill="#ffebab" stroke="#ffebab" fill-opacity="1" stroke-opacity="1"/><path d="M494.19783546589315,172.52918478101492L547.1217124443501,324.1411726176739L652.5244191102684,279.56441167742014Z" fill="#fff8c0" stroke="#fff8c0" fill-opacity="1" stroke-opacity="1"/><path d="M652.5244191102684,279.56441167742014L547.1217124443501,324.1411726176739L624.5391188934445,364.7628525272012Z" fill="#fffedc" stroke="#fffedc" fill-opacity="1" stroke-opacity="1"/><path d="M652.5244191102684,279.56441167742014L624.5391188934445,364.7628525272012L796.0996633674949,262.26042319089174Z" fill="#f6fce9" stroke="#f6fce9" fill-opacity="1" stroke-opacity="1"/><path d="M796.0996633674949,262.26042319089174L624.5391188934445,364.7628525272012L839.1597677394748,406.25620842911303Z" fill="#e6f8fb" stroke="#e6f8fb" fill-opacity="1" stroke-opacity="1"/><path d="M796.0996633674949,262.26042319089174L839.1597677394748,406.25620842911303L938.4563085995615,428.4717730432749Z" fill="#c6edf5" stroke="#c6edf5" fill-opacity="1" stroke-opacity="1"/><path d="M796.0996633674949,262.26042319089174L938.4563085995615,428.4717730432749L958.0605010036379,170.7241457607597Z" fill="#cfe7e8" stroke="#cfe7e8" fill-opacity="1" stroke-opacity="1"/><path d="M958.0605010036379,170.7241457607597L938.4563085995615,428.4717730432749L1149.411006141454,226.68858761899173Z" fill="#b6d1d9" stroke="#b6d1d9" fill-opacity="1" stroke-opacity="1"/><path d="M1149.411006141454,226.68858761899173L938.4563085995615,428.4717730432749L1157.2357302624732,369.9088595621288Z" fill="#a3c2de" stroke="#a3c2de" fill-opacity="1" stroke-opacity="1"/><path d="M1149.411006141454,226.68858761899173L1157.2357302624732,369.9088595621288L1251.6215910203755,387.5559183117002Z" fill="#9ca9d1" stroke="#9ca9d1" fill-opacity="1" stroke-opacity="1"/><path d="M1149.411006141454,226.68858761899173L1251.6215910203755,387.5559183117002L1307.6070658676326,244.16074133478105Z" fill="#999cc1" stroke="#999cc1" fill-opacity="1" stroke-opacity="1"/><path d="M1307.6070658676326,244.16074133478105L1251.6215910203755,387.5559183117002L1404.3554407171905,278.39940992183983Z" fill="#9287ba" stroke="#9287ba" fill-opacity="1" stroke-opacity="1"/><path d="M1404.3554407171905,278.39940992183983L1251.6215910203755,387.5559183117002L1422.628867244348,386.00315862335265Z" fill="#8480bc" stroke="#8480bc" fill-opacity="1" stroke-opacity="1"/><path d="M1404.3554407171905,278.39940992183983L1422.628867244348,386.00315862335265L1525.3726340085268,365.7951648719609Z" fill="#8080b0" stroke="#8080b0" fill-opacity="1" stroke-opacity="1"/><path d="M1404.3554407171905,278.39940992183983L1525.3726340085268,365.7951648719609L1626.773766092956,225.94886055216193Z" fill="#82809f" stroke="#82809f" fill-opacity="1" stroke-opacity="1"/><path d="M1626.773766092956,225.94886055216193L1525.3726340085268,365.7951648719609L1532.130407486111,533.4559730440378Z" fill="#6980a2" stroke="#6980a2" fill-opacity="1" stroke-opacity="1"/><path d="M1626.773766092956,225.94886055216193L1532.130407486111,533.4559730440378L1567.9071151837707,677.8659203555435Z" fill="#2f4d90" stroke="#2f4d90" fill-opacity="1" stroke-opacity="1"/><path d="M-112.1433131955564,365.51484080962837L-117.19831659458578,721.1480177566409L-63.266997216269374,470.0926671177149Z" fill="#623275" stroke="#623275" fill-opacity="1" stroke-opacity="1"/><path d="M131.00655091926455,315.30533543787897L-63.266997216269374,470.0926671177149L84.0982276853174,550.0474294926971Z" fill="#9d6c8d" stroke="#9d6c8d" fill-opacity="1" stroke-opacity="1"/><path d="M131.00655091926455,315.30533543787897L84.0982276853174,550.0474294926971L231.5176260843873,415.17686541192234Z" fill="#ba8a94" stroke="#ba8a94" fill-opacity="1" stroke-opacity="1"/><path d="M231.5176260843873,415.17686541192234L84.0982276853174,550.0474294926971L248.04215007461607,515.037001837045Z" fill="#9c6c85" stroke="#9c6c85" fill-opacity="1" stroke-opacity="1"/><path d="M231.5176260843873,415.17686541192234L248.04215007461607,515.037001837045L354.443684136495,360.2846514713019Z" fill="#c4a9a2" stroke="#c4a9a2" fill-opacity="1" stroke-opacity="1"/><path d="M354.443684136495,360.2846514713019L248.04215007461607,515.037001837045L355.0254949461669,576.2229090370238Z" fill="#a99398" stroke="#a99398" fill-opacity="1" stroke-opacity="1"/><path d="M354.443684136495,360.2846514713019L355.0254949461669,576.2229090370238L514.37350301072,520.7740817125887Z" fill="#aaa7a4" stroke="#aaa7a4" fill-opacity="1" stroke-opacity="1"/><path d="M354.443684136495,360.2846514713019L514.37350301072,520.7740817125887L547.1217124443501,324.1411726176739Z" fill="#d9e2c2" stroke="#d9e2c2" fill-opacity="1" stroke-opacity="1"/><path d="M547.1217124443501,324.1411726176739L514.37350301072,520.7740817125887L624.5391188934445,364.7628525272012Z" fill="#d9eed3" stroke="#d9eed3" fill-opacity="1" stroke-opacity="1"/><path d="M624.5391188934445,364.7628525272012L514.37350301072,520.7740817125887L625.712668178603,494.89719464443624Z" fill="#b9d4cf" stroke="#b9d4cf" fill-opacity="1" stroke-opacity="1"/><path d="M624.5391188934445,364.7628525272012L625.712668178603,494.89719464443624L810.8328547049314,468.6596186924726Z" fill="#b9e0e9" stroke="#b9e0e9" fill-opacity="1" stroke-opacity="1"/><path d="M624.5391188934445,364.7628525272012L810.8328547049314,468.6596186924726L839.1597677394748,406.25620842911303Z" fill="#c0eaf9" stroke="#c0eaf9" fill-opacity="1" stroke-opacity="1"/><path d="M839.1597677394748,406.25620842911303L810.8328547049314,468.6596186924726L938.4563085995615,428.4717730432749Z" fill="#9dd5f2" stroke="#9dd5f2" fill-opacity="1" stroke-opacity="1"/><path d="M938.4563085995615,428.4717730432749L810.8328547049314,468.6596186924726L938.5868978127837,529.6264875400811Z" fill="#81b7e3" stroke="#81b7e3" fill-opacity="1" stroke-opacity="1"/><path d="M938.4563085995615,428.4717730432749L938.5868978127837,529.6264875400811L1168.6625472083688,489.58967316895723Z" fill="#649cd4" stroke="#649cd4" fill-opacity="1" stroke-opacity="1"/><path d="M938.4563085995615,428.4717730432749L1168.6625472083688,489.58967316895723L1157.2357302624732,369.9088595621288Z" fill="#72abdb" stroke="#72abdb" fill-opacity="1" stroke-opacity="1"/><path d="M1157.2357302624732,369.9088595621288L1168.6625472083688,489.58967316895723L1251.6215910203755,387.5559183117002Z" fill="#6e98ce" stroke="#6e98ce" fill-opacity="1" stroke-opacity="1"/><path d="M1251.6215910203755,387.5559183117002L1168.6625472083688,489.58967316895723L1282.965620951727,517.9076675511897Z" fill="#5073bf" stroke="#5073bf" fill-opacity="1" stroke-opacity="1"/><path d="M1251.6215910203755,387.5559183117002L1282.965620951727,517.9076675511897L1422.628867244348,386.00315862335265Z" fill="#5b71be" stroke="#5b71be" fill-opacity="1" stroke-opacity="1"/><path d="M1422.628867244348,386.00315862335265L1282.965620951727,517.9076675511897L1424.31761585176,539.5957487169653Z" fill="#3c4ca8" stroke="#3c4ca8" fill-opacity="1" stroke-opacity="1"/><path d="M1422.628867244348,386.00315862335265L1424.31761585176,539.5957487169653L1532.130407486111,533.4559730440378Z" fill="#33499d" stroke="#33499d" fill-opacity="1" stroke-opacity="1"/><path d="M1422.628867244348,386.00315862335265L1532.130407486111,533.4559730440378L1525.3726340085268,365.7951648719609Z" fill="#4e6ba8" stroke="#4e6ba8" fill-opacity="1" stroke-opacity="1"/><path d="M-63.266997216269374,470.0926671177149L-117.19831659458578,721.1480177566409L70.21038668230176,656.2121640332043Z" fill="#590054" stroke="#590054" fill-opacity="1" stroke-opacity="1"/><path d="M-63.266997216269374,470.0926671177149L70.21038668230176,656.2121640332043L84.0982276853174,550.0474294926971Z" fill="#731d68" stroke="#731d68" fill-opacity="1" stroke-opacity="1"/><path d="M84.0982276853174,550.0474294926971L70.21038668230176,656.2121640332043L239.00910733267665,686.7866193316877Z" fill="#771a51" stroke="#771a51" fill-opacity="1" stroke-opacity="1"/><path d="M84.0982276853174,550.0474294926971L239.00910733267665,686.7866193316877L248.04215007461607,515.037001837045Z" fill="#882e67" stroke="#882e67" fill-opacity="1" stroke-opacity="1"/><path d="M248.04215007461607,515.037001837045L239.00910733267665,686.7866193316877L355.0254949461669,576.2229090370238Z" fill="#8e3f6f" stroke="#8e3f6f" fill-opacity="1" stroke-opacity="1"/><path d="M355.0254949461669,576.2229090370238L239.00910733267665,686.7866193316877L370.3317225538194,694.9172244686633Z" fill="#824a5f" stroke="#824a5f" fill-opacity="1" stroke-opacity="1"/><path d="M355.0254949461669,576.2229090370238L370.3317225538194,694.9172244686633L514.37350301072,520.7740817125887Z" fill="#905f80" stroke="#905f80" fill-opacity="1" stroke-opacity="1"/><path d="M514.37350301072,520.7740817125887L370.3317225538194,694.9172244686633L512.4719941243529,731.7472058068961Z" fill="#856a78" stroke="#856a78" fill-opacity="1" stroke-opacity="1"/><path d="M514.37350301072,520.7740817125887L512.4719941243529,731.7472058068961L691.8381114676595,681.7908672709018Z" fill="#877a8e" stroke="#877a8e" fill-opacity="1" stroke-opacity="1"/><path d="M514.37350301072,520.7740817125887L691.8381114676595,681.7908672709018L625.712668178603,494.89719464443624Z" fill="#9890b0" stroke="#9890b0" fill-opacity="1" stroke-opacity="1"/><path d="M625.712668178603,494.89719464443624L691.8381114676595,681.7908672709018L831.8855199962854,618.9443925395608Z" fill="#857bbd" stroke="#857bbd" fill-opacity="1" stroke-opacity="1"/><path d="M625.712668178603,494.89719464443624L831.8855199962854,618.9443925395608L810.8328547049314,468.6596186924726Z" fill="#8fa5db" stroke="#8fa5db" fill-opacity="1" stroke-opacity="1"/><path d="M810.8328547049314,468.6596186924726L831.8855199962854,618.9443925395608L938.5868978127837,529.6264875400811Z" fill="#7692d0" stroke="#7692d0" fill-opacity="1" stroke-opacity="1"/><path d="M938.5868978127837,529.6264875400811L831.8855199962854,618.9443925395608L1004.0391141269356,660.1963634882122Z" fill="#5a63b5" stroke="#5a63b5" fill-opacity="1" stroke-opacity="1"/><path d="M938.5868978127837,529.6264875400811L1004.0391141269356,660.1963634882122L1114.9247755575925,643.4827932436019Z" fill="#4451a8" stroke="#4451a8" fill-opacity="1" stroke-opacity="1"/><path d="M938.5868978127837,529.6264875400811L1114.9247755575925,643.4827932436019L1168.6625472083688,489.58967316895723Z" fill="#465fb5" stroke="#465fb5" fill-opacity="1" stroke-opacity="1"/><path d="M1168.6625472083688,489.58967316895723L1114.9247755575925,643.4827932436019L1282.965620951727,517.9076675511897Z" fill="#3945a9" stroke="#3945a9" fill-opacity="1" stroke-opacity="1"/><path d="M1282.965620951727,517.9076675511897L1114.9247755575925,643.4827932436019L1241.5229420363903,714.5632605627179Z" fill="#27238c" stroke="#27238c" fill-opacity="1" stroke-opacity="1"/><path d="M1282.965620951727,517.9076675511897L1241.5229420363903,714.5632605627179L1424.31761585176,539.5957487169653Z" fill="#26098b" stroke="#26098b" fill-opacity="1" stroke-opacity="1"/><path d="M1424.31761585176,539.5957487169653L1241.5229420363903,714.5632605627179L1464.5734846685082,695.691929217428Z" fill="#14006f" stroke="#14006f" fill-opacity="1" stroke-opacity="1"/><path d="M1424.31761585176,539.5957487169653L1464.5734846685082,695.691929217428L1532.130407486111,533.4559730440378Z" fill="#1a0278" stroke="#1a0278" fill-opacity="1" stroke-opacity="1"/><path d="M1532.130407486111,533.4559730440378L1464.5734846685082,695.691929217428L1567.9071151837707,677.8659203555435Z" fill="#0b0062" stroke="#0b0062" fill-opacity="1" stroke-opacity="1"/><path d="M-117.19831659458578,721.1480177566409L512.4719941243529,731.7472058068961L239.00910733267665,686.7866193316877Z" fill="#762e3e" stroke="#762e3e" fill-opacity="1" stroke-opacity="1"/><path d="M-117.19831659458578,721.1480177566409L239.00910733267665,686.7866193316877L70.21038668230176,656.2121640332043Z" fill="#600d3c" stroke="#600d3c" fill-opacity="1" stroke-opacity="1"/><path d="M239.00910733267665,686.7866193316877L512.4719941243529,731.7472058068961L370.3317225538194,694.9172244686633Z" fill="#7f5854" stroke="#7f5854" fill-opacity="1" stroke-opacity="1"/><path d="M512.4719941243529,731.7472058068961L1241.5229420363903,714.5632605627179L691.8381114676595,681.7908672709018Z" fill="#61729a" stroke="#61729a" fill-opacity="1" stroke-opacity="1"/><path d="M691.8381114676595,681.7908672709018L1241.5229420363903,714.5632605627179L1004.0391141269356,660.1963634882122Z" fill="#3d5994" stroke="#3d5994" fill-opacity="1" stroke-opacity="1"/><path d="M691.8381114676595,681.7908672709018L1004.0391141269356,660.1963634882122L831.8855199962854,618.9443925395608Z" fill="#6070ab" stroke="#6070ab" fill-opacity="1" stroke-opacity="1"/><path d="M1004.0391141269356,660.1963634882122L1241.5229420363903,714.5632605627179L1114.9247755575925,643.4827932436019Z" fill="#243a88" stroke="#243a88" fill-opacity="1" stroke-opacity="1"/></g></svg>